<?xml version="1.0" encoding="UTF-8" standalone="no"?>
<!DOCTYPE svg  PUBLIC '-//W3C//DTD SVG 1.1//EN'  'http://www.w3.org/Graphics/SVG/1.1/DTD/svg11.dtd'>
<svg xmlns="http://www.w3.org/2000/svg">
<defs>
<font id="Interstate-ExtraLight" horiz-adv-x="720">
<font-face underline-position="-113" font-weight="200" descent="-200" panose-1="2 0 5 6 3 0 0 2 0 4" units-per-em="1000" unicode-range="U+0020-25CA" bbox="-44 -196 1233 897" x-height="525" underline-thickness="20" font-family="Interstate" ascent="800" cap-height="700"/>
<missing-glyph horiz-adv-x="1000"/>
<glyph glyph-name=".notdef" horiz-adv-x="1000"/>
<glyph glyph-name=".notdef" horiz-adv-x="1000"/>
<glyph glyph-name=".null" horiz-adv-x="0"/>
<glyph glyph-name="nonmarkingreturn" horiz-adv-x="333"/>
<glyph glyph-name="space" horiz-adv-x="251" unicode=" "/>
<glyph glyph-name="exclam" horiz-adv-x="244" unicode="!" d="M159 31q0 -15 -11.5 -26t-25.5 -11q-15 0 -26 11t-11 26t11 26.5t26 11.5q14 0 25.5 -11.5t11.5 -26.5zM144 371l-10 -208h-25l-10 208v329h45v-329z"/>
<glyph glyph-name="quotedbl" horiz-adv-x="441" unicode='&quot;' d="M149 700l-10 -272h-35l-10 272h55zM346 700l-9 -272h-36l-9 272h54z"/>
<glyph glyph-name="numbersign" horiz-adv-x="658" unicode="#" d="M432 236v228h-206v-228h206zM603 194h-126v-194h-45v194h-206v-194h-44v194h-127v42h127v228h-127v41h127v195h44v-195h206v195h45v-195h126v-41h-126v-228h126v-42z"/>
<glyph glyph-name="dollar" horiz-adv-x="568" unicode="$" d="M498 179q0 -80 -54.5 -129t-142.5 -54v-96h-44v96q-114 7 -198 81l27 35q91 -75 196 -75q75 0 122.5 36t47.5 103q0 58 -38.5 93.5t-144.5 74.5q-115 43 -156 82t-41 110t49.5 117t135.5 51v96h44v-95q99 -5 184 -66l-26 -37q-83 61 -181 61q-78 0 -119 -35.5t-41 -89.5 q0 -53 35 -84.5t141 -70.5q117 -43 160.5 -87t43.5 -117z"/>
<glyph glyph-name="percent" horiz-adv-x="908" unicode="%" d="M805 197q0 80 -30 126.5t-83 46.5q-52 0 -82 -46t-30 -126t30 -126.5t83 -46.5q52 0 82 47t30 125zM328 501q0 80 -30.5 127t-82.5 47q-53 0 -83 -46t-30 -127q0 -80 30.5 -126t82.5 -46t82.5 47t30.5 124zM846 198q0 -96 -41.5 -152.5t-112.5 -56.5t-112 56t-41 152 t41.5 152.5t112.5 56.5q72 0 112.5 -56t40.5 -152zM693 700l-435 -700h-44l435 700h44zM369 502q0 -95 -42 -151.5t-113 -56.5q-70 0 -111.5 56t-41.5 151q0 97 41.5 153.5t112.5 56.5q72 0 113 -56t41 -153z"/>
<glyph glyph-name="ampersand" horiz-adv-x="628" unicode="&amp;" d="M434 120l-187 243q-144 -68 -144 -189q0 -66 41.5 -105.5t113.5 -39.5q107 0 176 91zM583 0h-54l-70 89q-83 -100 -202 -100q-97 0 -147.5 50t-50.5 134q0 138 164 220l-23 30q-35 46 -51.5 78t-16.5 71q0 62 45.5 100.5t117.5 38.5q102 0 182 -61l-24 -36 q-76 57 -159 57q-51 0 -83.5 -26.5t-32.5 -70.5q0 -33 13 -59.5t43 -64.5l227 -292q33 54 59 146l39 -11q-26 -98 -72 -169z"/>
<glyph glyph-name="quotesingle" horiz-adv-x="241" unicode="&apos;" d="M148 700l-9 -272h-37l-9 272h55z"/>
<glyph glyph-name="parenleft" horiz-adv-x="349" unicode="(" d="M280 -92l-21 -18q-185 185 -185 410q0 239 186 416l19 -18q-160 -167 -160 -395q0 -223 161 -395z"/>
<glyph glyph-name="parenright" horiz-adv-x="349" unicode=")" d="M275 306q0 -239 -186 -416l-19 18q160 167 160 395q0 223 -161 395l21 18q185 -185 185 -410z"/>
<glyph glyph-name="asterisk" horiz-adv-x="487" unicode="*" d="M415 434l-18 -32l-145 96l10 -174h-37l10 174l-145 -96l-18 32l153 78l-153 78l18 32l145 -96l-10 174h37l-10 -174l145 96l18 -32l-153 -78z"/>
<glyph glyph-name="plus" horiz-adv-x="573" unicode="+" d="M518 324h-210v-227h-43v227h-210v40h210v227h43v-227h210v-40z"/>
<glyph glyph-name="comma" horiz-adv-x="211" unicode="," d="M140 91l-44 -187h-32l17 187h59z"/>
<glyph glyph-name="hyphen" horiz-adv-x="317" unicode="-" d="M265 343h-214v43h214v-43z"/>
<glyph glyph-name="period" horiz-adv-x="211" unicode="." d="M143 32q0 -16 -11.5 -27t-26.5 -11q-16 0 -27 11t-11 27t11 28t27 12q15 0 26.5 -12t11.5 -28z"/>
<glyph glyph-name="slash" horiz-adv-x="414" unicode="/" d="M376 790l-294 -880h-43l293 880h44z"/>
<glyph glyph-name="zero" horiz-adv-x="646" unicode="0" d="M537 350q0 149 -56.5 234.5t-157.5 85.5t-157.5 -85.5t-56.5 -234.5t56.5 -234.5t157.5 -85.5t157.5 85.5t56.5 234.5zM583 350q0 -169 -71 -265t-189 -96t-188.5 96t-70.5 265t70.5 265t188.5 96t189 -96t71 -265z"/>
<glyph glyph-name="one" horiz-adv-x="292" unicode="1" d="M193 0h-45v626q-6 -14 -44.5 -29t-80.5 -15v38q51 2 88.5 23t46.5 59h35v-702z"/>
<glyph glyph-name="two" horiz-adv-x="559" unicode="2" d="M485 0h-438q5 102 55 172.5t163 150.5q102 71 134.5 112.5t32.5 98.5q0 65 -42.5 100.5t-117.5 35.5q-103 0 -178 -57l-24 32q88 66 203 66q93 0 149 -44.5t56 -129.5q0 -72 -36.5 -118.5t-145.5 -123.5q-106 -74 -147.5 -129.5t-50.5 -121.5h387v-44z"/>
<glyph glyph-name="three" horiz-adv-x="548" unicode="3" d="M480 195q0 -97 -63.5 -151.5t-174.5 -54.5q-56 0 -112.5 22t-87.5 54l27 33q33 -30 80.5 -49t94.5 -19q92 0 141.5 43t49.5 121t-49.5 116.5t-134.5 38.5h-45v39h46q74 0 114 37.5t40 101.5q0 67 -40 105t-121 38q-92 0 -152 -56l-28 29q27 27 76 47.5t106 20.5 q94 0 149.5 -46t55.5 -134q0 -73 -35 -111t-86 -49q61 -9 105 -52.5t44 -123.5z"/>
<glyph glyph-name="four" horiz-adv-x="595" unicode="4" d="M408 218v428l-320 -428h320zM554 179h-104v-179h-42v179h-371v38l364 486h49v-485h104v-39z"/>
<glyph glyph-name="five" horiz-adv-x="589" unicode="5" d="M529 223q0 -112 -70.5 -173t-187.5 -61q-119 0 -204 54l21 38q82 -51 187 -51q97 0 152.5 52t55.5 138q0 81 -47.5 126t-142.5 45q-103 0 -165 -55l-46 18l26 346h385v-44h-346l-20 -277q62 53 169 53q117 0 175 -56t58 -153z"/>
<glyph glyph-name="six" horiz-adv-x="610" unicode="6" d="M515 211q0 84 -53 129t-144 45q-90 0 -146.5 -49t-56.5 -124q4 -85 57.5 -133.5t144.5 -48.5q90 0 144 51t54 130zM561 213q0 -102 -69 -163t-177 -61q-114 0 -180.5 66.5t-66.5 203.5q0 59 12 116.5t41 115t71.5 102.5t109 76.5t149.5 39.5v-41q-104 -12 -178.5 -65 t-111 -126t-47.5 -166q23 52 79.5 83.5t135.5 31.5q103 0 167.5 -54.5t64.5 -158.5z"/>
<glyph glyph-name="seven" horiz-adv-x="538" unicode="7" d="M471 657q-240 -298 -251 -657h-47q13 355 246 656h-395v44h447v-43z"/>
<glyph glyph-name="eight" horiz-adv-x="621" unicode="8" d="M518 189q0 74 -56 117t-152 43t-151.5 -42.5t-55.5 -116.5q0 -75 55.5 -117.5t152.5 -42.5q98 0 152.5 42t54.5 117zM487 530q0 62 -47 101t-130 39q-82 0 -129 -38.5t-47 -100.5q0 -64 48.5 -102t128.5 -38q79 0 127.5 38t48.5 101zM563 190q0 -97 -68.5 -149 t-184.5 -52t-184 51.5t-68 148.5q0 75 45.5 121.5t125.5 61.5q-63 15 -102 54t-39 104q0 82 61 131.5t162 49.5t161.5 -49t60.5 -131q0 -64 -38.5 -103t-102.5 -54q81 -15 126 -62t45 -122z"/>
<glyph glyph-name="nine" horiz-adv-x="610" unicode="9" d="M495 488q-4 85 -57.5 133.5t-144.5 48.5q-90 0 -144 -51t-54 -130q0 -84 53 -129t145 -45q89 0 145.5 49t56.5 124zM542 441q0 -59 -12 -116.5t-41 -115t-71.5 -102.5t-109 -76.5t-149.5 -39.5v41q105 12 179 65t110.5 126t46.5 166q-23 -52 -78.5 -83.5t-135.5 -31.5 q-103 0 -167.5 54.5t-64.5 158.5q0 102 69 163t177 61q114 0 180.5 -66.5t66.5 -203.5z"/>
<glyph glyph-name="colon" horiz-adv-x="211" unicode=":" d="M143 32q0 -16 -11.5 -27t-26.5 -11q-16 0 -27 11t-11 27t11 28t27 12q15 0 26.5 -12t11.5 -28zM143 491q0 -16 -11.5 -27t-26.5 -11q-16 0 -27 11t-11 27t11 28t27 12q15 0 26.5 -12t11.5 -28z"/>
<glyph glyph-name="semicolon" horiz-adv-x="211" unicode=";" d="M133 91l-45 -187h-31l16 187h60zM143 491q0 -16 -11.5 -27t-26.5 -11q-16 0 -27 11t-11 27t11 28t27 12q15 0 26.5 -12t11.5 -28z"/>
<glyph glyph-name="less" horiz-adv-x="385" unicode="&lt;" d="M313 63l-258 261v40l258 261v-56l-223 -224l223 -225v-57z"/>
<glyph glyph-name="equal" horiz-adv-x="579" unicode="=" d="M495 219h-411v41h411v-41zM495 428h-411v41h411v-41z"/>
<glyph glyph-name="greater" horiz-adv-x="385" unicode="&gt;" d="M330 324l-258 -261v57l223 223l-223 225v57l258 -261v-40z"/>
<glyph glyph-name="question" horiz-adv-x="557" unicode="?" d="M289 31q0 -15 -11.5 -26t-25.5 -11q-15 0 -26 11t-11 26t11 26.5t26 11.5q14 0 25.5 -11.5t11.5 -26.5zM478 546q0 -62 -26 -97.5t-95 -87.5q-53 -40 -67.5 -74.5t-14.5 -123.5h-46q0 102 19 142.5t87 89.5q56 43 76.5 72t20.5 76q0 56 -43.5 91t-114.5 35 q-105 0 -191 -73l-26 33q93 82 219 82q92 0 147 -43.5t55 -121.5z"/>
<glyph glyph-name="at" horiz-adv-x="836" unicode="@" d="M526 256v93q-58 33 -126 33q-52 0 -85.5 -27t-33.5 -73q0 -50 31 -74.5t85 -24.5q81 0 129 73zM779 360q0 -107 -39.5 -157.5t-106.5 -50.5q-37 0 -64 19.5t-37 53.5q-50 -73 -138 -73q-63 0 -104.5 32t-41.5 96q0 62 44 96.5t111 34.5q70 0 123 -32v65q0 49 -27 70 t-86 21q-53 0 -110 -27l-12 28q64 30 126 30q69 0 104.5 -27.5t35.5 -92.5v-185q0 -39 20 -60.5t60 -21.5q51 0 81.5 43.5t30.5 136.5q0 139 -93.5 231.5t-237.5 92.5q-145 0 -238 -93t-93 -239q0 -147 93 -240.5t238 -93.5q77 0 144 32l10 -26q-75 -34 -154 -34 q-157 0 -259 102t-102 259t102 259t259 102t259 -102.5t102 -248.5z"/>
<glyph glyph-name="A" horiz-adv-x="664" unicode="A" d="M473 235l-141 411l-142 -411h283zM602 0h-48l-67 193h-311l-67 -193h-47l245 702h50z"/>
<glyph glyph-name="B" horiz-adv-x="607" unicode="B" d="M501 201q0 74 -50 115.5t-131 41.5h-179v-316h184q87 0 131.5 41.5t44.5 117.5zM462 532q0 62 -39 94t-104 32h-178v-259h176q69 0 107 35.5t38 97.5zM547 203q0 -99 -58.5 -151t-166.5 -52h-226v700h225q82 0 134.5 -41t52.5 -125q0 -65 -32.5 -103t-80.5 -49 q61 -10 106.5 -54.5t45.5 -124.5z"/>
<glyph glyph-name="C" horiz-adv-x="619" unicode="C" d="M559 85q-81 -96 -208 -96q-126 0 -204 100.5t-78 259.5q0 161 79 261.5t205 100.5q125 0 199 -89l-31 -32q-34 41 -73.5 60t-95.5 19q-104 0 -170.5 -88t-66.5 -230q0 -143 67 -231.5t170 -88.5q101 0 177 85z"/>
<glyph glyph-name="D" horiz-adv-x="661" unicode="D" d="M546 351q0 153 -69 230t-203 77h-132v-616h134q270 0 270 309zM592 353q0 -180 -86 -266.5t-236 -86.5h-174v700h182q148 0 231 -86t83 -261z"/>
<glyph glyph-name="E" horiz-adv-x="555" unicode="E" d="M507 0h-411v700h396v-42h-350v-264h212v-42h-212v-310h365v-42z"/>
<glyph glyph-name="F" horiz-adv-x="523" unicode="F" d="M481 658h-339v-276h204v-42h-204v-340h-46v700h385v-42z"/>
<glyph glyph-name="G" horiz-adv-x="662" unicode="G" d="M599 278q0 -139 -67 -214t-181 -75q-126 0 -204 100.5t-78 259.5q0 160 79.5 261t204.5 101q138 0 208 -95l-35 -30q-34 43 -74.5 63t-99.5 20q-105 0 -171 -88t-66 -230q0 -143 67 -231.5t170 -88.5q97 0 149.5 62t52.5 179v13h-152v42h197v-49z"/>
<glyph glyph-name="H" horiz-adv-x="674" unicode="H" d="M578 0h-46v344h-390v-344h-46v700h46v-314h390v314h46v-700z"/>
<glyph glyph-name="I" horiz-adv-x="249" unicode="I" d="M147 0h-46v700h46v-700z"/>
<glyph glyph-name="J" horiz-adv-x="560" unicode="J" d="M469 238q0 -249 -220 -249q-155 0 -209 146l42 18q25 -61 65 -91.5t104 -30.5q172 0 172 208v461h46v-462z"/>
<glyph glyph-name="K" horiz-adv-x="616" unicode="K" d="M290 383l-148 -189v-194h-46v700h46v-442l344 442h52l-217 -278l250 -422h-52z"/>
<glyph glyph-name="L" horiz-adv-x="539" unicode="L" d="M488 0h-392v700h46v-658h346v-42z"/>
<glyph glyph-name="M" horiz-adv-x="790" unicode="M" d="M693 0h-44v602l-255 -614h-1l-252 614v-602h-45v700h52l247 -605l247 605h51v-700z"/>
<glyph glyph-name="N" horiz-adv-x="671" unicode="N" d="M574 0h-41l-392 621v-621h-45v700h45l389 -617v617h44v-700z"/>
<glyph glyph-name="O" horiz-adv-x="714" unicode="O" d="M599 350q0 146 -68.5 232.5t-174.5 86.5t-173.5 -85.5t-67.5 -231.5t68.5 -233.5t174.5 -87.5t173.5 86.5t67.5 232.5zM645 352q0 -163 -80.5 -263t-208.5 -100t-207.5 99t-79.5 262t80.5 262t208.5 99t207.5 -98t79.5 -261z"/>
<glyph glyph-name="P" horiz-adv-x="594" unicode="P" d="M502 498q0 160 -179 160h-181v-325h169q191 0 191 165zM549 500q0 -101 -63 -155t-175 -54h-169v-291h-46v700h229q104 0 164 -49t60 -151z"/>
<glyph glyph-name="Q" horiz-adv-x="715" unicode="Q" d="M600 349q0 146 -69 233t-175 87t-173.5 -86t-67.5 -232t68.5 -233t174.5 -87q56 0 99 24l-64 103l37 23l64 -103q106 85 106 271zM646 351q0 -103 -34.5 -183t-95.5 -126l41 -65l-37 -22l-41 64q-57 -30 -122 -30q-128 0 -208 98.5t-80 261.5q0 164 80.5 263t208.5 99 t208 -98.5t80 -261.5z"/>
<glyph glyph-name="R" horiz-adv-x="623" unicode="R" d="M509 508q0 150 -181 150h-186v-305h174q193 0 193 155zM555 509q0 -81 -45.5 -129.5t-127.5 -62.5l161 -317h-53l-157 311h-191v-311h-46v700h234q104 0 164.5 -46t60.5 -145z"/>
<glyph glyph-name="S" horiz-adv-x="576" unicode="S" d="M501 176q0 -85 -60.5 -136t-157.5 -51q-129 0 -225 84l31 34q90 -76 196 -76q74 0 122 37.5t48 105.5q0 58 -39.5 94t-143.5 74q-114 42 -155.5 83t-41.5 113q0 77 56.5 125t152.5 48q112 0 204 -67l-30 -36q-80 61 -177 61q-78 0 -119 -37t-41 -91q0 -55 35 -87.5 t141 -70.5q117 -44 160.5 -88t43.5 -119z"/>
<glyph glyph-name="T" horiz-adv-x="574" unicode="T" d="M526 658h-217v-658h-46v658h-217v42h480v-42z"/>
<glyph glyph-name="U" horiz-adv-x="667" unicode="U" d="M576 270q0 -281 -242 -281q-243 0 -243 280v431h46v-430q0 -239 199 -239q99 0 146.5 58.5t47.5 179.5v431h46v-430z"/>
<glyph glyph-name="V" horiz-adv-x="658" unicode="V" d="M596 700l-241 -702h-51l-242 702h48l219 -649l220 649h47z"/>
<glyph glyph-name="W" horiz-adv-x="875" unicode="W" d="M809 700l-150 -702h-54l-168 637l-168 -637h-53l-149 702h46l130 -640l168 640h54l168 -640l131 640h45z"/>
<glyph glyph-name="X" horiz-adv-x="613" unicode="X" d="M553 0h-52l-195 324l-196 -324h-50l222 365l-203 335h52l176 -293l177 293h50l-203 -334z"/>
<glyph glyph-name="Y" horiz-adv-x="633" unicode="Y" d="M578 700l-239 -412v-288h-46v287l-238 413h52l210 -366l210 366h51z"/>
<glyph glyph-name="Z" horiz-adv-x="606" unicode="Z" d="M535 0h-474v40l422 620h-402v40h454v-40l-422 -620h422v-40z"/>
<glyph glyph-name="bracketleft" horiz-adv-x="334" unicode="[" d="M269 -110h-169v810h169v-36h-126v-738h126v-36z"/>
<glyph glyph-name="backslash" horiz-adv-x="414" unicode="\" d="M376 -90h-44l-293 880h43z"/>
<glyph glyph-name="bracketright" horiz-adv-x="334" unicode="]" d="M234 -110h-169v36h126v738h-126v36h169v-810z"/>
<glyph glyph-name="asciicircum" horiz-adv-x="550" unicode="^" d="M494 382h-51l-168 270l-169 -270h-49l201 318h34z"/>
<glyph glyph-name="underscore" horiz-adv-x="500" unicode="_" d="M500 -133h-500v37h500v-37z"/>
<glyph glyph-name="grave" horiz-adv-x="500" unicode="`" d="M312 595h-36l-130 147h63z"/>
<glyph glyph-name="a" horiz-adv-x="532" unicode="a" d="M406 123v122q-68 39 -157 39q-68 0 -110 -34t-42 -97q0 -66 38.5 -97t99.5 -31q106 0 171 98zM450 0h-44v79q-71 -90 -178 -90q-74 0 -124 38.5t-50 123.5q0 82 56.5 125.5t140.5 43.5q86 0 155 -39v78q0 74 -33 107t-104 33q-74 0 -151 -41l-16 36q81 42 170 42 t133.5 -40t44.5 -132v-364z"/>
<glyph glyph-name="b" horiz-adv-x="553" unicode="b" d="M451 267q0 115 -42 172.5t-117 57.5q-95 0 -162 -96v-275q28 -44 71 -71t93 -27q157 0 157 239zM496 268q0 -137 -54.5 -208t-144.5 -71q-102 0 -167 88v-77h-44v704l44 25v-283q68 90 173 90q89 0 141 -66.5t52 -201.5z"/>
<glyph glyph-name="c" horiz-adv-x="492" unicode="c" d="M436 54q-67 -65 -163 -65q-91 0 -153.5 69.5t-62.5 202.5q0 135 65 205t155 70t159 -58l-27 -33q-60 52 -135 52q-73 0 -122.5 -61.5t-49.5 -170.5q0 -111 48.5 -174t124.5 -63q77 0 135 55z"/>
<glyph glyph-name="d" horiz-adv-x="553" unicode="d" d="M423 124v275q-27 44 -70 71t-93 27q-158 0 -158 -239q0 -115 42 -172.5t118 -57.5q94 0 161 96zM467 0h-44v79q-66 -90 -172 -90q-89 0 -141.5 66.5t-52.5 201.5q0 137 54.5 208t144.5 71q104 0 167 -88v256l44 25v-729z"/>
<glyph glyph-name="e" horiz-adv-x="538" unicode="e" d="M435 286q-3 100 -47 155.5t-119 55.5q-71 0 -117.5 -55t-50.5 -156h334zM477 274q0 -12 -2 -24h-374q3 -104 49.5 -163t120.5 -59q82 0 157 47l20 -32q-45 -28 -85.5 -41t-96.5 -13q-86 0 -147.5 70t-61.5 205q0 125 60 198.5t152 73.5q95 0 151.5 -70.5t56.5 -191.5z "/>
<glyph glyph-name="f" horiz-adv-x="342" unicode="f" d="M302 673q-26 12 -62 12q-71 0 -71 -79v-81h122v-37h-122v-488h-44v488h-78v37h78v77q0 123 112 123q36 0 66 -10z"/>
<glyph glyph-name="g" horiz-adv-x="553" unicode="g" d="M423 124v275q-27 44 -70 71t-93 27q-158 0 -158 -239q0 -115 42 -172.5t118 -57.5q94 0 161 96zM467 47q0 -125 -60.5 -182t-206.5 -61l-15 37q135 4 186.5 48.5t51.5 152.5v37q-66 -90 -172 -90q-89 0 -141.5 66.5t-52.5 201.5q0 137 54.5 208t144.5 71q104 0 167 -88 v77h44v-478z"/>
<glyph glyph-name="h" horiz-adv-x="565" unicode="h" d="M483 0h-44v314q0 183 -151 183q-66 0 -112 -44t-46 -138v-315h-44v704l44 25v-293q19 47 63.5 73.5t103.5 26.5q87 0 136.5 -52.5t49.5 -161.5v-322z"/>
<glyph glyph-name="i" horiz-adv-x="226" unicode="i" d="M135 0h-44v525h44v-525zM145 672q0 -13 -9.5 -22.5t-21.5 -9.5q-14 0 -23.5 9.5t-9.5 22.5q0 14 9.5 23t23.5 9q12 0 21.5 -9.5t9.5 -22.5z"/>
<glyph glyph-name="j" horiz-adv-x="226" unicode="j" d="M135 -2q0 -88 -26.5 -130t-101.5 -63l-17 38q62 19 81.5 49t19.5 107v526h44v-527zM145 672q0 -13 -9.5 -22.5t-21.5 -9.5q-14 0 -23.5 9.5t-9.5 22.5q0 14 9.5 23t23.5 9q12 0 21.5 -9.5t9.5 -22.5z"/>
<glyph glyph-name="k" horiz-adv-x="494" unicode="k" d="M451 0h-48l-164 291l-109 -144v-147h-44v704l44 25v-523l237 319h49l-149 -197z"/>
<glyph glyph-name="l" horiz-adv-x="226" unicode="l" d="M135 0h-44v704l44 25v-729z"/>
<glyph glyph-name="m" horiz-adv-x="877" unicode="m" d="M803 0h-44v314q0 183 -143 183q-63 0 -106 -43.5t-43 -138.5v-315h-44v315q0 182 -144 182q-63 0 -106 -43.5t-43 -138.5v-315h-44v525h44v-89q19 48 60.5 74t97.5 26q64 0 105.5 -32.5t56.5 -86.5q19 57 63.5 88t110.5 31q84 0 131.5 -52t47.5 -162v-322z"/>
<glyph glyph-name="n" horiz-adv-x="565" unicode="n" d="M483 0h-44v314q0 183 -151 183q-66 0 -112 -44t-46 -138v-315h-44v525h44v-89q19 48 63 74t104 26q87 0 136.5 -52.5t49.5 -161.5v-322z"/>
<glyph glyph-name="o" horiz-adv-x="567" unicode="o" d="M465 264q0 111 -50.5 172t-131.5 61t-131 -61t-50 -172q0 -112 50 -174t131 -62t131.5 62t50.5 174zM510 265q0 -129 -64.5 -202.5t-163.5 -73.5q-98 0 -161.5 72t-63.5 201t64.5 201.5t163.5 72.5q98 0 161.5 -71.5t63.5 -199.5z"/>
<glyph glyph-name="p" horiz-adv-x="553" unicode="p" d="M451 267q0 115 -42 172.5t-117 57.5q-95 0 -162 -96v-275q28 -44 71 -71t93 -27q157 0 157 239zM496 268q0 -137 -54.5 -208t-144.5 -71q-102 0 -167 88v-242l-44 -25v715h44v-79q68 90 173 90q89 0 141 -66.5t52 -201.5z"/>
<glyph glyph-name="q" horiz-adv-x="553" unicode="q" d="M423 124v275q-27 44 -70 71t-93 27q-158 0 -158 -239q0 -115 42 -172.5t118 -57.5q94 0 161 96zM467 -165l-44 -25v269q-66 -90 -172 -90q-89 0 -141.5 66.5t-52.5 201.5q0 137 54.5 208t144.5 71q104 0 167 -88v77h44v-690z"/>
<glyph glyph-name="r" horiz-adv-x="396" unicode="r" d="M360 522l-11 -43q-37 16 -81 16q-57 0 -97.5 -45t-40.5 -134v-316h-44v525h44v-95q15 48 56.5 77t90.5 29q55 0 83 -14z"/>
<glyph glyph-name="s" horiz-adv-x="449" unicode="s" d="M388 129q0 -67 -47.5 -103.5t-122.5 -36.5q-91 0 -169 61l24 32q66 -55 146 -55q61 0 94 26.5t33 74.5q0 40 -28.5 67t-105.5 60q-85 36 -116.5 67t-31.5 88q0 55 42.5 90.5t110.5 35.5q97 0 160 -52l-25 -32q-59 46 -137 46q-50 0 -79 -24.5t-29 -60.5q0 -41 26 -65.5 t102 -56.5q84 -36 118.5 -69t34.5 -93z"/>
<glyph glyph-name="t" horiz-adv-x="348" unicode="t" d="M289 49l-2 -39q-43 -19 -94 -19q-89 0 -89 102v395h-68v37h68v179l44 25v-204h139v-37h-139v-388q0 -69 61 -69q43 0 80 18z"/>
<glyph glyph-name="u" horiz-adv-x="565" unicode="u" d="M479 0h-44v89q-16 -48 -60.5 -74t-105.5 -26q-88 0 -137.5 52.5t-49.5 161.5v322h44v-314q0 -183 151 -183q66 0 112 44t46 138v315h44v-525z"/>
<glyph glyph-name="v" horiz-adv-x="509" unicode="v" d="M466 525l-192 -526h-39l-192 526h48l164 -474l165 474h46z"/>
<glyph glyph-name="w" d="M672 525l-139 -526h-41l-132 459l-133 -459h-40l-139 526h46l114 -458l133 459h40l133 -459l114 458h44z" unicode="w"/>
<glyph glyph-name="x" horiz-adv-x="492" unicode="x" d="M437 0h-50l-142 238l-143 -238h-47l168 274l-153 251h49l128 -213l128 213h47l-153 -249z"/>
<glyph glyph-name="y" horiz-adv-x="514" unicode="y" d="M471 525l-263 -710h-44l70 188l-191 522h47l167 -472l167 472h47z"/>
<glyph glyph-name="z" horiz-adv-x="491" unicode="z" d="M423 0h-366v33l316 455h-288v37h338v-33l-315 -455h315v-37z"/>
<glyph glyph-name="braceleft" horiz-adv-x="377" unicode="{" d="M323 -110q-91 5 -134 51.5t-43 145.5v117q0 71 -63 71h-29v42h29q63 0 63 71v119q0 100 43 145.5t134 50.5v-37q-70 -8 -101.5 -42.5t-31.5 -111.5v-108q0 -87 -58 -109q31 -11 44.5 -36.5t13.5 -71.5v-105q0 -77 31.5 -111.5t101.5 -42.5v-38z"/>
<glyph glyph-name="bar" horiz-adv-x="291" unicode="|" d="M167 -185h-43v985h43v-985z"/>
<glyph glyph-name="braceright" horiz-adv-x="377" unicode="}" d="M322 277h-28q-63 0 -63 -72v-118q0 -99 -43 -145.5t-134 -51.5v38q70 8 101.5 42.5t31.5 111.5v108q0 46 13.5 71.5t44.5 36.5q-58 22 -58 109v105q0 77 -31.5 111.5t-101.5 42.5v37q91 -5 134 -50.5t43 -145.5v-117q0 -72 63 -72h28v-41z"/>
<glyph glyph-name="asciitilde" horiz-adv-x="538" unicode="~" d="M481 413q-24 -53 -51.5 -77t-69.5 -24t-94 35q-55 38 -87 38q-27 0 -45.5 -17t-37.5 -57l-39 18q24 53 52 77t70 24t93 -35q55 -38 88 -38q27 0 44.5 16.5t37.5 57.5z"/>
<glyph glyph-name="nbspace" horiz-adv-x="126" unicode=" "/>
<glyph glyph-name="exclamdown" horiz-adv-x="244" unicode="¡" d="M99 329l10 208h25l10 -208v-329h-45v329zM84 669q0 15 11.5 26t25.5 11q15 0 26 -11t11 -26t-11 -26.5t-26 -11.5q-14 0 -25.5 11.5t-11.5 26.5z"/>
<glyph glyph-name="cent" horiz-adv-x="492" unicode="¢" d="M436 148q-59 -57 -141 -63v-96h-45v96q-82 9 -137.5 78.5t-55.5 191.5t56 192.5t137 80.5v88h45v-87q80 -5 141 -57l-26 -32q-60 51 -136 51q-73 0 -122.5 -61.5t-49.5 -170.5q0 -111 48.5 -174t124.5 -63q78 0 135 54z"/>
<glyph glyph-name="sterling" horiz-adv-x="582" unicode="£" d="M229 306q3 -19 3 -41q0 -120 -97 -223h392v-42h-448v41q109 113 109 225q0 23 -4 40h-105v41h93q-7 19 -25.5 56t-29 68.5t-10.5 67.5q0 80 57.5 126t151.5 46q108 0 198 -74l-28 -34q-76 67 -171 67q-77 0 -120 -36.5t-43 -93.5q0 -43 31 -109.5t36 -83.5h163v-41h-153z "/>
<glyph glyph-name="currency" horiz-adv-x="588" unicode="¤" d="M117 265q15 -111 71.5 -173t146.5 -62q91 0 161 84l32 -29q-78 -96 -194 -96q-124 0 -195.5 95.5t-71.5 264.5t74 265.5t195 96.5q120 0 185 -89l-35 -29q-32 40 -66 58.5t-85 18.5q-85 0 -142 -60t-75 -168h275v-40h-279q-2 -34 -2 -51q0 -16 2 -46h279v-40h-276z"/>
<glyph glyph-name="yen" horiz-adv-x="610" unicode="¥" d="M561 700l-233 -412v-100h148v-41h-148v-147h-46v147h-153v41h153v99l-233 413h53l204 -369l204 369h51z"/>
<glyph glyph-name="brokenbar" d="M695 347l-149 -113q-4 -3 -6.5 -1t-0.5 6l69 88h-227v-255l88 70q4 1 6 -1.5t0 -5.5l-114 -150l-113 150q-3 3 -1 6t6 1l88 -70v255h-229l69 -88q2 -4 -0.5 -6t-6.5 1l-149 113l149 114q4 2 6.5 0t0.5 -6l-69 -88h229v261l-88 -70q-4 -2 -6 1t1 6l113 150l114 -150 q2 -3 0 -5.5t-6 -1.5l-88 70v-261h227l-69 88q-1 4 1 6t6 0z" unicode="¦"/>
<glyph glyph-name="section" horiz-adv-x="609" unicode="§" d="M505 262q0 53 -36.5 85t-140.5 61q-40 11 -80 26q-68 -22 -106 -60t-38 -89q0 -53 36.5 -85t139.5 -61q40 -11 81 -26q68 22 106 60t38 89zM551 265q0 -61 -41 -104.5t-110 -68.5q44 -23 63 -50t19 -66q0 -63 -49 -101.5t-130 -38.5q-104 0 -181 60l24 36q76 -55 164 -55 q58 0 92.5 26.5t34.5 68.5q0 44 -34.5 71t-126.5 53q-125 35 -171.5 75t-46.5 111q0 61 41 104.5t110 68.5q-44 23 -63 50t-19 66q0 63 49 101.5t130 38.5q103 0 181 -61l-24 -35q-72 55 -164 55q-58 0 -92.5 -26.5t-34.5 -68.5q0 -44 34.5 -71t126.5 -53q125 -35 171.5 -75 t46.5 -111z"/>
<glyph glyph-name="dieresis" horiz-adv-x="500" unicode="¨" d="M186 659q0 -13 -9.5 -23t-22.5 -10q-14 0 -24 9.5t-10 23.5t10 24t24 10q13 0 22.5 -10t9.5 -24zM380 659q0 -13 -10 -23t-23 -10t-23 10t-10 23q0 14 10 24t23 10t23 -10t10 -24z"/>
<glyph glyph-name="copyright" horiz-adv-x="836" unicode="©" d="M542 195q-49 -57 -124 -57q-74 0 -120.5 59t-46.5 153t47 153t121 59q75 0 119 -52l-24 -21q-37 43 -95 43q-60 0 -98 -50t-38 -131t38 -132t98 -51q59 0 101 49zM749 350q0 146 -94 239.5t-237 93.5t-237 -93.5t-94 -239.5t94 -239.5t237 -93.5t237 93.5t94 239.5z M779 350q0 -158 -102.5 -259.5t-258.5 -101.5t-258.5 101.5t-102.5 259.5t102.5 259.5t258.5 101.5t258.5 -101.5t102.5 -259.5z"/>
<glyph glyph-name="ordfeminine" horiz-adv-x="457" unicode="ª" d="M338 382v95q-55 30 -123 30q-53 0 -85.5 -26.5t-32.5 -74.5q0 -51 30 -75t77 -24q85 0 134 75zM378 282h-40v59q-51 -68 -140 -68q-59 0 -100 31t-41 99q0 67 46 102t114 35q67 0 121 -30v59q0 57 -26 82.5t-81 25.5q-65 0 -121 -32l-15 31q65 35 139 35q72 0 108 -32.5 t36 -105.5v-291z"/>
<glyph glyph-name="guillemotleft" horiz-adv-x="556" unicode="«" d="M289 0h-50l-203 262l203 263h50l-203 -262zM502 0h-50l-203 262l203 263h50l-203 -262z"/>
<glyph glyph-name="logicalnot" horiz-adv-x="613" unicode="¬" d="M579 347l-155 -111q-1 -1 -4 -1q-7 0 -5 6l69 85h-423v42h423l-69 85q-1 2 1 4.5t5 2.5q2 0 3 -1z"/>
<glyph glyph-name="registered" horiz-adv-x="836" unicode="®" d="M536 448q0 83 -103 83h-105v-170h98q110 0 110 87zM568 448q0 -95 -98 -113l94 -183h-37l-93 180q-2 0 -7.5 -0.5t-8.5 -0.5h-90v-179h-31v408h137q134 0 134 -112zM749 350q0 146 -94 239.5t-237 93.5t-237 -93.5t-94 -239.5t94 -239.5t237 -93.5t237 93.5t94 239.5z M779 350q0 -158 -102.5 -259.5t-258.5 -101.5t-258.5 101.5t-102.5 259.5t102.5 259.5t258.5 101.5t258.5 -101.5t102.5 -259.5z"/>
<glyph glyph-name="macron" horiz-adv-x="500" unicode="¯" d="M386 628h-272v41h272v-41z"/>
<glyph glyph-name="degree" horiz-adv-x="459" unicode="°" d="M361 536q0 60 -36.5 99t-95.5 39q-57 0 -94 -39t-37 -99q0 -61 36.5 -100t94.5 -39q59 0 95.5 39t36.5 100zM400 536q0 -76 -48 -126t-123 -50q-74 0 -122.5 50.5t-48.5 125.5q0 74 48.5 124.5t122.5 50.5t122.5 -50.5t48.5 -124.5z"/>
<glyph glyph-name="plusminus" d="M695 347l-149 -113q-4 -3 -6.5 -1t-0.5 6l69 88h-227v-255l88 70q4 1 6 -1.5t0 -5.5l-114 -150l-113 150q-3 3 -1 6t6 1l88 -70v255h-229l69 -88q2 -4 -0.5 -6t-6.5 1l-149 113l149 114q4 2 6.5 0t0.5 -6l-69 -88h229v261l-88 -70q-4 -2 -6 1t1 6l113 150l114 -150 q2 -3 0 -5.5t-6 -1.5l-88 70v-261h227l-69 88q-1 4 1 6t6 0z" unicode="±"/>
<glyph glyph-name="twosuperior" d="M695 347l-149 -113q-4 -3 -6.5 -1t-0.5 6l69 88h-227v-255l88 70q4 1 6 -1.5t0 -5.5l-114 -150l-113 150q-3 3 -1 6t6 1l88 -70v255h-229l69 -88q2 -4 -0.5 -6t-6.5 1l-149 113l149 114q4 2 6.5 0t0.5 -6l-69 -88h229v261l-88 -70q-4 -2 -6 1t1 6l113 150l114 -150 q2 -3 0 -5.5t-6 -1.5l-88 70v-261h227l-69 88q-1 4 1 6t6 0z" unicode="²"/>
<glyph glyph-name="threesuperior" d="M695 347l-149 -113q-4 -3 -6.5 -1t-0.5 6l69 88h-227v-255l88 70q4 1 6 -1.5t0 -5.5l-114 -150l-113 150q-3 3 -1 6t6 1l88 -70v255h-229l69 -88q2 -4 -0.5 -6t-6.5 1l-149 113l149 114q4 2 6.5 0t0.5 -6l-69 -88h229v261l-88 -70q-4 -2 -6 1t1 6l113 150l114 -150 q2 -3 0 -5.5t-6 -1.5l-88 70v-261h227l-69 88q-1 4 1 6t6 0z" unicode="³"/>
<glyph glyph-name="acute" horiz-adv-x="500" unicode="´" d="M354 742l-130 -147h-36l103 147h63z"/>
<glyph glyph-name="mu" horiz-adv-x="744" unicode="µ" d="M719 347l-155 -111q-1 -1 -4 -1q-7 0 -5 6l70 85h-506l70 -85q2 -6 -5 -6q-3 0 -4 1l-155 111l155 112q1 1 3 1q3 0 5 -2.5t1 -4.5l-70 -85h506l-70 85q-1 2 1 4.5t5 2.5q2 0 3 -1z"/>
<glyph glyph-name="paragraph" horiz-adv-x="657" unicode="¶" d="M353 302v358h-64q-92 0 -143.5 -45t-51.5 -130t48 -134t146 -49h65zM558 -185h-45v845h-114v-845h-46v447h-70q-107 0 -171 59.5t-64 161.5t66.5 159.5t169.5 57.5h274v-885z"/>
<glyph glyph-name="periodcentered" horiz-adv-x="211" unicode="·" d="M143 377q0 -16 -11.5 -27t-26.5 -11q-16 0 -27 11t-11 27t11 28t27 12q15 0 26.5 -12t11.5 -28z"/>
<glyph glyph-name="cedilla" horiz-adv-x="500" unicode="¸" d="M359 -101q0 -76 -107 -76q-57 0 -106 32l14 21q40 -28 94 -28q34 0 52 13.5t18 36.5q0 18 -11.5 28.5t-29.5 10.5q-31 0 -52 -21l-26 9l30 75h31l-20 -50q19 12 51 12q24 0 43 -16.5t19 -46.5z"/>
<glyph glyph-name="onesuperior" d="M695 347l-149 -113q-4 -3 -6.5 -1t-0.5 6l69 88h-227v-255l88 70q4 1 6 -1.5t0 -5.5l-114 -150l-113 150q-3 3 -1 6t6 1l88 -70v255h-229l69 -88q2 -4 -0.5 -6t-6.5 1l-149 113l149 114q4 2 6.5 0t0.5 -6l-69 -88h229v261l-88 -70q-4 -2 -6 1t1 6l113 150l114 -150 q2 -3 0 -5.5t-6 -1.5l-88 70v-261h227l-69 88q-1 4 1 6t6 0z" unicode="¹"/>
<glyph glyph-name="ordmasculine" horiz-adv-x="482" unicode="º" d="M384 493q0 87 -39.5 134.5t-103.5 47.5t-103.5 -47.5t-39.5 -134.5t39.5 -135.5t103.5 -48.5t103.5 48t39.5 136zM424 494q0 -103 -52 -161.5t-132 -58.5t-131 57.5t-51 160.5t52 161t132 58t131 -57.5t51 -159.5z"/>
<glyph glyph-name="guillemotright" horiz-adv-x="556" unicode="»" d="M54 0l203 263l-203 262h50l203 -263l-203 -262h-50zM267 0l203 263l-203 262h50l203 -263l-203 -262h-50z"/>
<glyph glyph-name="onequarter" d="M695 347l-149 -113q-4 -3 -6.5 -1t-0.5 6l69 88h-227v-255l88 70q4 1 6 -1.5t0 -5.5l-114 -150l-113 150q-3 3 -1 6t6 1l88 -70v255h-229l69 -88q2 -4 -0.5 -6t-6.5 1l-149 113l149 114q4 2 6.5 0t0.5 -6l-69 -88h229v261l-88 -70q-4 -2 -6 1t1 6l113 150l114 -150 q2 -3 0 -5.5t-6 -1.5l-88 70v-261h227l-69 88q-1 4 1 6t6 0z" unicode="¼"/>
<glyph glyph-name="onehalf" d="M695 347l-149 -113q-4 -3 -6.5 -1t-0.5 6l69 88h-227v-255l88 70q4 1 6 -1.5t0 -5.5l-114 -150l-113 150q-3 3 -1 6t6 1l88 -70v255h-229l69 -88q2 -4 -0.5 -6t-6.5 1l-149 113l149 114q4 2 6.5 0t0.5 -6l-69 -88h229v261l-88 -70q-4 -2 -6 1t1 6l113 150l114 -150 q2 -3 0 -5.5t-6 -1.5l-88 70v-261h227l-69 88q-1 4 1 6t6 0z" unicode="½"/>
<glyph glyph-name="threequarters" d="M695 347l-149 -113q-4 -3 -6.5 -1t-0.5 6l69 88h-227v-255l88 70q4 1 6 -1.5t0 -5.5l-114 -150l-113 150q-3 3 -1 6t6 1l88 -70v255h-229l69 -88q2 -4 -0.5 -6t-6.5 1l-149 113l149 114q4 2 6.5 0t0.5 -6l-69 -88h229v261l-88 -70q-4 -2 -6 1t1 6l113 150l114 -150 q2 -3 0 -5.5t-6 -1.5l-88 70v-261h227l-69 88q-1 4 1 6t6 0z" unicode="¾"/>
<glyph glyph-name="questiondown" horiz-adv-x="557" unicode="¿" d="M79 154q0 62 26 97.5t95 87.5q53 40 67.5 74.5t14.5 123.5h46q0 -102 -19 -142.5t-87 -89.5q-55 -39 -76 -69.5t-21 -78.5q0 -56 43.5 -91t114.5 -35q105 0 191 73l26 -33q-93 -82 -219 -82q-92 0 -147 43.5t-55 121.5zM268 669q0 15 11.5 26t25.5 11q15 0 26 -11t11 -26 t-11 -26.5t-26 -11.5q-14 0 -25.5 11.5t-11.5 26.5z"/>
<glyph glyph-name="Agrave" horiz-adv-x="664" unicode="À" d="M351 745h-36l-130 147h63zM473 235l-141 411l-142 -411h283zM602 0h-48l-67 193h-311l-67 -193h-47l245 702h50z"/>
<glyph glyph-name="Aacute" horiz-adv-x="664" unicode="Á" d="M479 892l-130 -147h-36l103 147h63zM473 235l-141 411l-142 -411h283zM602 0h-48l-67 193h-311l-67 -193h-47l245 702h50z"/>
<glyph glyph-name="Acircumflex" horiz-adv-x="664" unicode="Â" d="M487 725h-39l-117 113l-116 -113h-38l130 147h50zM473 235l-141 411l-142 -411h283zM602 0h-48l-67 193h-311l-67 -193h-47l245 702h50z"/>
<glyph glyph-name="Atilde" horiz-adv-x="664" unicode="Ã" d="M496 852q-2 -51 -26.5 -78t-62.5 -27q-35 0 -75 30q-47 34 -62 38q-7 2 -15 2q-43 0 -53 -68h-36q2 51 26.5 78t62.5 27q35 0 75 -30q32 -24 46 -32t31 -8q43 0 53 68h36zM473 235l-141 411l-142 -411h283zM602 0h-48l-67 193h-311l-67 -193h-47l245 702h50z"/>
<glyph glyph-name="Adieresis" horiz-adv-x="664" unicode="Ä" d="M269 807q0 -13 -9.5 -23t-22.5 -10q-14 0 -24 9.5t-10 23.5t10 24t24 10q13 0 22.5 -10t9.5 -24zM463 807q0 -13 -9.5 -23t-23.5 -10t-23.5 10t-9.5 23q0 14 10 24t23 10t23 -10t10 -24zM473 235l-141 411l-142 -411h283zM602 0h-48l-67 193h-311l-67 -193h-47l245 702 h50z"/>
<glyph glyph-name="Aring" horiz-adv-x="664" unicode="Å" d="M473 235l-141 411l-142 -411h283zM401 765q0 29 -19.5 49t-49.5 20t-50 -20t-20 -49q0 -31 19.5 -50.5t50.5 -19.5q30 0 49.5 19.5t19.5 50.5zM602 0h-48l-67 193h-311l-67 -193h-47l236 674q-28 10 -46 34.5t-18 56.5q0 41 28 69t70 28q41 0 69 -28t28 -69 q0 -31 -18 -56t-46 -34z"/>
<glyph glyph-name="AE" horiz-adv-x="964" unicode="Æ" d="M505 235v402l-270 -402h270zM916 0h-411v193h-297l-129 -193h-53l474 700h401v-42h-352v-264h213v-42h-213v-310h367v-42z"/>
<glyph glyph-name="Ccedilla" horiz-adv-x="619" unicode="Ç" d="M318 -9q-113 14 -181 112t-68 246q0 161 79 261.5t205 100.5q125 0 199 -89l-31 -32q-34 41 -73.5 60t-95.5 19q-104 0 -170.5 -88t-66.5 -230q0 -143 67 -231.5t170 -88.5q101 0 177 85l30 -31q-81 -96 -208 -96h-2l-16 -39q19 12 51 12q24 0 43 -16.5t19 -46.5 q0 -76 -107 -76q-57 0 -106 32l14 21q40 -28 94 -28q34 0 52 13.5t18 36.5q0 18 -11.5 28.5t-29.5 10.5q-31 0 -52 -21l-26 9z"/>
<glyph glyph-name="Egrave" horiz-adv-x="555" unicode="È" d="M329 745h-36l-130 147h63zM507 0h-411v700h396v-42h-350v-264h212v-42h-212v-310h365v-42z"/>
<glyph glyph-name="Eacute" horiz-adv-x="555" unicode="É" d="M422 892l-130 -147h-36l103 147h63zM507 0h-411v700h396v-42h-350v-264h212v-42h-212v-310h365v-42z"/>
<glyph glyph-name="Ecircumflex" horiz-adv-x="555" unicode="Ê" d="M448 745h-39l-117 113l-116 -113h-38l130 147h50zM507 0h-411v700h396v-42h-350v-264h212v-42h-212v-310h365v-42z"/>
<glyph glyph-name="Edieresis" horiz-adv-x="555" unicode="Ë" d="M231 809q0 -13 -9.5 -23t-22.5 -10q-14 0 -24 9.5t-10 23.5t10 24t24 10q13 0 22.5 -10t9.5 -24zM425 809q0 -13 -9.5 -23t-23.5 -10t-23.5 10t-9.5 23q0 14 10 24t23 10t23 -10t10 -24zM507 0h-411v700h396v-42h-350v-264h212v-42h-212v-310h365v-42z"/>
<glyph glyph-name="Igrave" horiz-adv-x="249" unicode="Ì" d="M145 745h-36l-130 147h63zM147 0h-46v700h46v-700z"/>
<glyph glyph-name="Iacute" horiz-adv-x="249" unicode="Í" d="M270 892l-130 -147h-36l103 147h63zM147 0h-46v700h46v-700z"/>
<glyph glyph-name="Icircumflex" horiz-adv-x="249" unicode="Î" d="M278 734h-39l-117 113l-116 -113h-38l130 147h50zM147 0h-46v700h46v-700z"/>
<glyph glyph-name="Idieresis" horiz-adv-x="249" unicode="Ï" d="M60 809q0 -13 -9.5 -23t-22.5 -10q-14 0 -24 9.5t-10 23.5t10 24t24 10q13 0 22.5 -10t9.5 -24zM254 809q0 -13 -10 -23t-23 -10t-23 10t-10 23q0 14 10 24t23 10t23 -10t10 -24zM147 0h-46v700h46v-700z"/>
<glyph glyph-name="Eth" horiz-adv-x="679" unicode="Ð" d="M556 351q0 153 -69 230t-203 77h-133v-272h152v-42h-152v-302h135q270 0 270 309zM602 353q0 -180 -86 -266.5t-236 -86.5h-174v344h-66v42h66v314h182q148 0 231 -86t83 -261z"/>
<glyph glyph-name="Ntilde" horiz-adv-x="671" unicode="Ñ" d="M505 852q-2 -51 -26.5 -78t-62.5 -27q-35 0 -75 30q-47 34 -62 38q-7 2 -15 2q-43 0 -53 -68h-36q2 51 26.5 78t62.5 27q35 0 75 -30q32 -24 46 -32t31 -8q43 0 53 68h36zM574 0h-41l-392 621v-621h-45v700h45l389 -617v617h44v-700z"/>
<glyph glyph-name="Ograve" horiz-adv-x="714" unicode="Ò" d="M382 745h-36l-130 147h63zM599 350q0 146 -68.5 232.5t-174.5 86.5t-173.5 -85.5t-67.5 -231.5t68.5 -233.5t174.5 -87.5t173.5 86.5t67.5 232.5zM645 352q0 -163 -80.5 -263t-208.5 -100t-207.5 99t-79.5 262t80.5 262t208.5 99t207.5 -98t79.5 -261z"/>
<glyph glyph-name="Oacute" horiz-adv-x="714" unicode="Ó" d="M492 892l-130 -147h-36l103 147h63zM599 350q0 146 -68.5 232.5t-174.5 86.5t-173.5 -85.5t-67.5 -231.5t68.5 -233.5t174.5 -87.5t173.5 86.5t67.5 232.5zM645 352q0 -163 -80.5 -263t-208.5 -100t-207.5 99t-79.5 262t80.5 262t208.5 99t207.5 -98t79.5 -261z"/>
<glyph glyph-name="Ocircumflex" horiz-adv-x="714" unicode="Ô" d="M511 742h-39l-117 113l-116 -113h-38l130 147h50zM599 350q0 146 -68.5 232.5t-174.5 86.5t-173.5 -85.5t-67.5 -231.5t68.5 -233.5t174.5 -87.5t173.5 86.5t67.5 232.5zM645 352q0 -163 -80.5 -263t-208.5 -100t-207.5 99t-79.5 262t80.5 262t208.5 99t207.5 -98 t79.5 -261z"/>
<glyph glyph-name="Otilde" horiz-adv-x="714" unicode="Õ" d="M519 852q-2 -51 -26.5 -78t-62.5 -27q-35 0 -75 30q-47 34 -62 38q-7 2 -15 2q-43 0 -53 -68h-36q2 51 26.5 78t62.5 27q35 0 75 -30q32 -24 46 -32t31 -8q43 0 53 68h36zM599 350q0 146 -68.5 232.5t-174.5 86.5t-173.5 -85.5t-67.5 -231.5t68.5 -233.5t174.5 -87.5 t173.5 86.5t67.5 232.5zM645 352q0 -163 -80.5 -263t-208.5 -100t-207.5 99t-79.5 262t80.5 262t208.5 99t207.5 -98t79.5 -261z"/>
<glyph glyph-name="Odieresis" horiz-adv-x="714" unicode="Ö" d="M292 809q0 -13 -9.5 -23t-22.5 -10q-14 0 -24 9.5t-10 23.5t10 24t24 10q13 0 22.5 -10t9.5 -24zM486 809q0 -13 -10 -23t-23 -10t-23 10t-10 23q0 14 10 24t23 10t23 -10t10 -24zM599 350q0 146 -68.5 232.5t-174.5 86.5t-173.5 -85.5t-67.5 -231.5t68.5 -233.5 t174.5 -87.5t173.5 86.5t67.5 232.5zM645 352q0 -163 -80.5 -263t-208.5 -100t-207.5 99t-79.5 262t80.5 262t208.5 99t207.5 -98t79.5 -261z"/>
<glyph glyph-name="multiply" d="M695 347l-149 -113q-4 -3 -6.5 -1t-0.5 6l69 88h-227v-255l88 70q4 1 6 -1.5t0 -5.5l-114 -150l-113 150q-3 3 -1 6t6 1l88 -70v255h-229l69 -88q2 -4 -0.5 -6t-6.5 1l-149 113l149 114q4 2 6.5 0t0.5 -6l-69 -88h229v261l-88 -70q-4 -2 -6 1t1 6l113 150l114 -150 q2 -3 0 -5.5t-6 -1.5l-88 70v-261h227l-69 88q-1 4 1 6t6 0z" unicode="×"/>
<glyph glyph-name="Oslash" horiz-adv-x="714" unicode="Ø" d="M500 616l-262 -550q53 -35 119 -35q106 0 174 87t68 233q0 177 -99 265zM208 90l262 548q-51 31 -113 31q-106 0 -174 -86t-68 -232q0 -173 93 -261zM188 48q-56 46 -87.5 124.5t-31.5 178.5q0 163 80 261.5t208 98.5q72 0 132 -34l34 73h41l-44 -93q125 -98 125 -306 q0 -163 -80 -262.5t-208 -99.5q-76 0 -138 37l-36 -76h-41q27 57 46 98z"/>
<glyph glyph-name="Ugrave" horiz-adv-x="667" unicode="Ù" d="M359 732h-36l-130 147h63zM576 270q0 -281 -242 -281q-243 0 -243 280v431h46v-430q0 -239 199 -239q99 0 146.5 58.5t47.5 179.5v431h46v-430z"/>
<glyph glyph-name="Uacute" horiz-adv-x="667" unicode="Ú" d="M468 879l-130 -147h-36l103 147h63zM576 270q0 -281 -242 -281q-243 0 -243 280v431h46v-430q0 -239 199 -239q99 0 146.5 58.5t47.5 179.5v431h46v-430z"/>
<glyph glyph-name="Ucircumflex" horiz-adv-x="667" unicode="Û" d="M488 745h-39l-117 113l-116 -113h-38l130 147h50zM576 270q0 -281 -242 -281q-243 0 -243 280v431h46v-430q0 -239 199 -239q99 0 146.5 58.5t47.5 179.5v431h46v-430z"/>
<glyph glyph-name="Udieresis" horiz-adv-x="667" unicode="Ü" d="M270 805q0 -13 -9.5 -23t-22.5 -10q-14 0 -24 9.5t-10 23.5t10 24t24 10q13 0 22.5 -10t9.5 -24zM464 805q0 -13 -10 -23t-23 -10t-23 10t-10 23q0 14 10 24t23 10t23 -10t10 -24zM576 270q0 -281 -242 -281q-243 0 -243 280v431h46v-430q0 -239 199 -239 q99 0 146.5 58.5t47.5 179.5v431h46v-430z"/>
<glyph glyph-name="Yacute" horiz-adv-x="633" unicode="Ý" d="M459 877l-130 -147h-36l103 147h63zM578 700l-239 -412v-288h-46v287l-238 413h52l210 -366l210 366h51z"/>
<glyph glyph-name="Thorn" horiz-adv-x="594" unicode="Þ" d="M502 365q0 160 -179 160h-181v-324h169q191 0 191 164zM549 367q0 -101 -63 -154.5t-175 -53.5h-169v-159h-46v700h46v-133h183q104 0 164 -49t60 -151z"/>
<glyph glyph-name="germandbls" horiz-adv-x="569" unicode="ß" d="M512 222q0 -114 -70 -168t-186 -54h-13v39h15q210 0 210 179q0 79 -56.5 121t-150.5 42h-18v38h20q74 0 111.5 35.5t37.5 101.5q0 57 -38 92.5t-105 35.5q-64 0 -101.5 -41.5t-37.5 -117.5v-690l-44 -25v708q0 97 49.5 151t135.5 54q85 0 135.5 -47.5t50.5 -119.5 q0 -65 -32.5 -102.5t-87.5 -49.5q78 -11 126.5 -56t48.5 -126z"/>
<glyph glyph-name="agrave" horiz-adv-x="532" unicode="à" d="M296 595h-36l-130 147h63zM406 123v122q-68 39 -157 39q-68 0 -110 -34t-42 -97q0 -66 38.5 -97t99.5 -31q106 0 171 98zM450 0h-44v79q-71 -90 -178 -90q-74 0 -124 38.5t-50 123.5q0 82 56.5 125.5t140.5 43.5q86 0 155 -39v78q0 74 -33 107t-104 33q-74 0 -151 -41 l-16 36q81 42 170 42t133.5 -40t44.5 -132v-364z"/>
<glyph glyph-name="aacute" horiz-adv-x="532" unicode="á" d="M408 742l-130 -147h-36l103 147h63zM406 123v122q-68 39 -157 39q-68 0 -110 -34t-42 -97q0 -66 38.5 -97t99.5 -31q106 0 171 98zM450 0h-44v79q-71 -90 -178 -90q-74 0 -124 38.5t-50 123.5q0 82 56.5 125.5t140.5 43.5q86 0 155 -39v78q0 74 -33 107t-104 33 q-74 0 -151 -41l-16 36q81 42 170 42t133.5 -40t44.5 -132v-364z"/>
<glyph glyph-name="acircumflex" horiz-adv-x="532" unicode="â" d="M422 592h-39l-117 113l-116 -113h-38l130 147h50zM406 123v122q-68 39 -157 39q-68 0 -110 -34t-42 -97q0 -66 38.5 -97t99.5 -31q106 0 171 98zM450 0h-44v79q-71 -90 -178 -90q-74 0 -124 38.5t-50 123.5q0 82 56.5 125.5t140.5 43.5q86 0 155 -39v78q0 74 -33 107 t-104 33q-74 0 -151 -41l-16 36q81 42 170 42t133.5 -40t44.5 -132v-364z"/>
<glyph glyph-name="atilde" horiz-adv-x="532" unicode="ã" d="M433 702q-2 -51 -26.5 -78t-62.5 -27q-35 0 -75 30q-47 34 -62 38q-7 2 -15 2q-43 0 -53 -68h-36q2 51 26.5 78t62.5 27q35 0 75 -30q32 -24 46 -32t31 -8q43 0 53 68h36zM406 123v122q-68 39 -157 39q-68 0 -110 -34t-42 -97q0 -66 38.5 -97t99.5 -31q106 0 171 98z M450 0h-44v79q-71 -90 -178 -90q-74 0 -124 38.5t-50 123.5q0 82 56.5 125.5t140.5 43.5q86 0 155 -39v78q0 74 -33 107t-104 33q-74 0 -151 -41l-16 36q81 42 170 42t133.5 -40t44.5 -132v-364z"/>
<glyph glyph-name="adieresis" horiz-adv-x="532" unicode="ä" d="M203 656q0 -13 -9.5 -23t-22.5 -10q-14 0 -24 9.5t-10 23.5t10 24t24 10q13 0 22.5 -10t9.5 -24zM397 656q0 -14 -9.5 -23.5t-23.5 -9.5t-23.5 9.5t-9.5 23.5t10 24t23 10t23 -10t10 -24zM406 123v122q-68 39 -157 39q-68 0 -110 -34t-42 -97q0 -66 38.5 -97t99.5 -31 q106 0 171 98zM450 0h-44v79q-71 -90 -178 -90q-74 0 -124 38.5t-50 123.5q0 82 56.5 125.5t140.5 43.5q86 0 155 -39v78q0 74 -33 107t-104 33q-74 0 -151 -41l-16 36q81 42 170 42t133.5 -40t44.5 -132v-364z"/>
<glyph glyph-name="aring" horiz-adv-x="532" unicode="å" d="M337 694q0 30 -19.5 50t-49.5 20t-49.5 -20t-19.5 -50t19 -49.5t50 -19.5t50 19.5t19 49.5zM366 694q0 -41 -28 -69t-70 -28t-70 28t-28 69t28 69t70 28t70 -28t28 -69zM406 123v122q-68 39 -157 39q-68 0 -110 -34t-42 -97q0 -66 38.5 -97t99.5 -31q106 0 171 98zM450 0 h-44v79q-71 -90 -178 -90q-74 0 -124 38.5t-50 123.5q0 82 56.5 125.5t140.5 43.5q86 0 155 -39v78q0 74 -33 107t-104 33q-74 0 -151 -41l-16 36q81 42 170 42t133.5 -40t44.5 -132v-364z"/>
<glyph glyph-name="ae" horiz-adv-x="869" unicode="æ" d="M415 134q-16 48 -18 112q-69 38 -152 38q-68 0 -108 -34t-40 -97q0 -66 37 -97t97 -31q110 0 184 109zM766 286q-3 100 -45.5 155.5t-116.5 55.5q-71 0 -115.5 -54.5t-48.5 -156.5h326zM807 274q0 -18 -1 -24h-366q3 -105 47.5 -163.5t118.5 -58.5q48 0 80 11t72 36 l21 -32q-46 -29 -84 -41.5t-94 -12.5q-52 0 -97 28t-73 82q-81 -110 -207 -110q-73 0 -121.5 38.5t-48.5 123.5q0 83 55 126t138 43q82 0 151 -39v78q0 75 -31.5 107.5t-101.5 32.5q-68 0 -147 -41l-16 36q81 42 166 42q86 0 122 -35t40 -95q19 58 66 94t108 36 q94 0 148.5 -70.5t54.5 -191.5z"/>
<glyph glyph-name="ccedilla" horiz-adv-x="492" unicode="ç" d="M241 -9q-80 12 -132 80.5t-52 189.5q0 135 65 205t155 70t159 -58l-27 -33q-60 52 -135 52q-73 0 -122.5 -61.5t-49.5 -170.5q0 -111 48.5 -174t124.5 -63q77 0 135 55l26 -29q-67 -65 -163 -65h-2l-16 -39q19 12 51 12q24 0 43 -16.5t19 -46.5q0 -76 -107 -76 q-57 0 -106 32l14 21q40 -28 94 -28q34 0 52 13.5t18 36.5q0 18 -11.5 28.5t-29.5 10.5q-31 0 -52 -21l-26 9z"/>
<glyph glyph-name="egrave" horiz-adv-x="538" unicode="è" d="M300 595h-36l-130 147h63zM435 286q-3 100 -47 155.5t-119 55.5q-71 0 -117.5 -55t-50.5 -156h334zM477 274q0 -12 -2 -24h-374q3 -104 49.5 -163t120.5 -59q82 0 157 47l20 -32q-45 -28 -85.5 -41t-96.5 -13q-86 0 -147.5 70t-61.5 205q0 125 60 198.5t152 73.5 q95 0 151.5 -70.5t56.5 -191.5z"/>
<glyph glyph-name="eacute" horiz-adv-x="538" unicode="é" d="M406 742l-130 -147h-36l103 147h63zM435 286q-3 100 -47 155.5t-119 55.5q-71 0 -117.5 -55t-50.5 -156h334zM477 274q0 -12 -2 -24h-374q3 -104 49.5 -163t120.5 -59q82 0 157 47l20 -32q-45 -28 -85.5 -41t-96.5 -13q-86 0 -147.5 70t-61.5 205q0 125 60 198.5 t152 73.5q95 0 151.5 -70.5t56.5 -191.5z"/>
<glyph glyph-name="ecircumflex" horiz-adv-x="538" unicode="ê" d="M425 589h-39l-117 113l-116 -113h-38l130 147h50zM435 286q-3 100 -47 155.5t-119 55.5q-71 0 -117.5 -55t-50.5 -156h334zM477 274q0 -12 -2 -24h-374q3 -104 49.5 -163t120.5 -59q82 0 157 47l20 -32q-45 -28 -85.5 -41t-96.5 -13q-86 0 -147.5 70t-61.5 205 q0 125 60 198.5t152 73.5q95 0 151.5 -70.5t56.5 -191.5z"/>
<glyph glyph-name="edieresis" horiz-adv-x="538" unicode="ë" d="M204 656q0 -13 -9.5 -23t-22.5 -10q-14 0 -24 9.5t-10 23.5t10 24t24 10q13 0 22.5 -10t9.5 -24zM398 656q0 -14 -10 -23.5t-23 -9.5t-23 9.5t-10 23.5t10 24t23 10t23 -10t10 -24zM435 286q-3 100 -47 155.5t-119 55.5q-71 0 -117.5 -55t-50.5 -156h334zM477 274 q0 -12 -2 -24h-374q3 -104 49.5 -163t120.5 -59q82 0 157 47l20 -32q-45 -28 -85.5 -41t-96.5 -13q-86 0 -147.5 70t-61.5 205q0 125 60 198.5t152 73.5q95 0 151.5 -70.5t56.5 -191.5z"/>
<glyph glyph-name="igrave" horiz-adv-x="226" unicode="ì" d="M133 595h-36l-130 147h63zM135 0h-44v525h44v-525z"/>
<glyph glyph-name="iacute" horiz-adv-x="226" unicode="í" d="M261 742l-130 -147h-36l103 147h63zM135 0h-44v525h44v-525z"/>
<glyph glyph-name="icircumflex" horiz-adv-x="226" unicode="î" d="M268 582h-39l-117 113l-116 -113h-38l130 147h50zM135 0h-44v525h44v-525z"/>
<glyph glyph-name="idieresis" horiz-adv-x="226" unicode="ï" d="M49 651q0 -13 -9.5 -23t-22.5 -10q-14 0 -24 9.5t-10 23.5t10 24t24 10q13 0 22.5 -10t9.5 -24zM243 651q0 -13 -9.5 -23t-23.5 -10t-23.5 10t-9.5 23q0 14 10 24t23 10t23 -10t10 -24zM135 0h-44v525h44v-525z"/>
<glyph glyph-name="eth" horiz-adv-x="570" unicode="ð" d="M468 250q0 93 -52 143t-137 50q-82 0 -129.5 -55.5t-47.5 -151.5q0 -98 50 -153t131 -55q86 0 135.5 59t49.5 163zM513 301q0 -312 -231 -312q-98 0 -161.5 66.5t-63.5 179.5t61 180t154 67q157 0 202 -122q-25 175 -134 256l-49 -55l-31 25l45 50q-56 30 -120 36v39 q81 -6 146 -44l33 35l30 -25l-30 -33q70 -51 109.5 -139t39.5 -204z"/>
<glyph glyph-name="ntilde" horiz-adv-x="565" unicode="ñ" d="M446 702q-2 -51 -26.5 -78t-62.5 -27q-35 0 -75 30q-47 34 -62 38q-7 2 -15 2q-43 0 -53 -68h-36q2 51 26.5 78t62.5 27q35 0 75 -30q32 -24 46 -32t31 -8q43 0 53 68h36zM483 0h-44v314q0 183 -151 183q-66 0 -112 -44t-46 -138v-315h-44v525h44v-89q19 48 63 74t104 26 q87 0 136.5 -52.5t49.5 -161.5v-322z"/>
<glyph glyph-name="ograve" horiz-adv-x="567" unicode="ò" d="M313 595h-36l-130 147h63zM465 264q0 111 -50.5 172t-131.5 61t-131 -61t-50 -172q0 -112 50 -174t131 -62t131.5 62t50.5 174zM510 265q0 -129 -64.5 -202.5t-163.5 -73.5q-98 0 -161.5 72t-63.5 201t64.5 201.5t163.5 72.5q98 0 161.5 -71.5t63.5 -199.5z"/>
<glyph glyph-name="oacute" horiz-adv-x="567" unicode="ó" d="M417 742l-130 -147h-36l103 147h63zM465 264q0 111 -50.5 172t-131.5 61t-131 -61t-50 -172q0 -112 50 -174t131 -62t131.5 62t50.5 174zM510 265q0 -129 -64.5 -202.5t-163.5 -73.5q-98 0 -161.5 72t-63.5 201t64.5 201.5t163.5 72.5q98 0 161.5 -71.5t63.5 -199.5z"/>
<glyph glyph-name="ocircumflex" horiz-adv-x="567" unicode="ô" d="M437 589h-39l-117 113l-116 -113h-38l130 147h50zM465 264q0 111 -50.5 172t-131.5 61t-131 -61t-50 -172q0 -112 50 -174t131 -62t131.5 62t50.5 174zM510 265q0 -129 -64.5 -202.5t-163.5 -73.5q-98 0 -161.5 72t-63.5 201t64.5 201.5t163.5 72.5q98 0 161.5 -71.5 t63.5 -199.5z"/>
<glyph glyph-name="otilde" horiz-adv-x="567" unicode="õ" d="M447 702q-2 -51 -26.5 -78t-62.5 -27q-35 0 -75 30q-47 34 -62 38q-7 2 -15 2q-43 0 -53 -68h-36q2 51 26.5 78t62.5 27q35 0 75 -30q32 -24 46 -32t31 -8q43 0 53 68h36zM465 264q0 111 -50.5 172t-131.5 61t-131 -61t-50 -172q0 -112 50 -174t131 -62t131.5 62 t50.5 174zM510 265q0 -129 -64.5 -202.5t-163.5 -73.5q-98 0 -161.5 72t-63.5 201t64.5 201.5t163.5 72.5q98 0 161.5 -71.5t63.5 -199.5z"/>
<glyph glyph-name="odieresis" horiz-adv-x="567" unicode="ö" d="M218 653q0 -13 -9.5 -23t-22.5 -10q-14 0 -24 9.5t-10 23.5t10 24t24 10q13 0 22.5 -10t9.5 -24zM412 653q0 -13 -10 -23t-23 -10t-23 10t-10 23q0 14 10 24t23 10t23 -10t10 -24zM465 264q0 111 -50.5 172t-131.5 61t-131 -61t-50 -172q0 -112 50 -174t131 -62t131.5 62 t50.5 174zM510 265q0 -129 -64.5 -202.5t-163.5 -73.5q-98 0 -161.5 72t-63.5 201t64.5 201.5t163.5 72.5q98 0 161.5 -71.5t63.5 -199.5z"/>
<glyph glyph-name="divide" d="M695 347l-149 -113q-4 -3 -6.5 -1t-0.5 6l69 88h-227v-255l88 70q4 1 6 -1.5t0 -5.5l-114 -150l-113 150q-3 3 -1 6t6 1l88 -70v255h-229l69 -88q2 -4 -0.5 -6t-6.5 1l-149 113l149 114q4 2 6.5 0t0.5 -6l-69 -88h229v261l-88 -70q-4 -2 -6 1t1 6l113 150l114 -150 q2 -3 0 -5.5t-6 -1.5l-88 70v-261h227l-69 88q-1 4 1 6t6 0z" unicode="÷"/>
<glyph glyph-name="oslash" horiz-adv-x="567" unicode="ø" d="M467 264q0 124 -67 188l-203 -402q37 -24 86 -24q81 0 132.5 62.5t51.5 175.5zM372 475q-39 24 -89 24q-81 0 -131.5 -61.5t-50.5 -173.5q0 -128 67 -192zM510 265q0 -129 -64.5 -202.5t-163.5 -73.5q-59 0 -102 26l-33 -65h-39l42 83q-93 72 -93 229q0 129 64.5 201.5 t163.5 72.5q57 0 103 -27l34 66h39l-42 -84q91 -73 91 -226z"/>
<glyph glyph-name="ugrave" horiz-adv-x="565" unicode="ù" d="M303 591h-36l-130 147h63zM479 0h-44v89q-16 -48 -60.5 -74t-105.5 -26q-88 0 -137.5 52.5t-49.5 161.5v322h44v-314q0 -183 151 -183q66 0 112 44t46 138v315h44v-525z"/>
<glyph glyph-name="uacute" horiz-adv-x="565" unicode="ú" d="M418 738l-130 -147h-36l103 147h63zM479 0h-44v89q-16 -48 -60.5 -74t-105.5 -26q-88 0 -137.5 52.5t-49.5 161.5v322h44v-314q0 -183 151 -183q66 0 112 44t46 138v315h44v-525z"/>
<glyph glyph-name="ucircumflex" horiz-adv-x="565" unicode="û" d="M436 595h-39l-117 113l-116 -113h-38l130 147h50zM479 0h-44v89q-16 -48 -60.5 -74t-105.5 -26q-88 0 -137.5 52.5t-49.5 161.5v322h44v-314q0 -183 151 -183q66 0 112 44t46 138v315h44v-525z"/>
<glyph glyph-name="udieresis" horiz-adv-x="565" unicode="ü" d="M219 657q0 -13 -9.5 -23t-22.5 -10q-14 0 -24 9.5t-10 23.5t10 24t24 10q13 0 22.5 -10t9.5 -24zM413 657q0 -13 -9.5 -23t-23.5 -10t-23.5 10t-9.5 23q0 14 10 24t23 10t23 -10t10 -24zM479 0h-44v89q-16 -48 -60.5 -74t-105.5 -26q-88 0 -137.5 52.5t-49.5 161.5v322 h44v-314q0 -183 151 -183q66 0 112 44t46 138v315h44v-525z"/>
<glyph glyph-name="yacute" horiz-adv-x="514" unicode="ý" d="M400 732l-130 -147h-36l103 147h63zM471 525l-263 -710h-44l70 188l-191 522h47l167 -472l167 472h47z"/>
<glyph glyph-name="thorn" horiz-adv-x="553" unicode="þ" d="M452 267q0 115 -42 172.5t-118 57.5q-95 0 -162 -96v-275q28 -44 71 -71t93 -27q76 0 117 59.5t41 179.5zM496 268q0 -137 -54.5 -208t-144.5 -71q-102 0 -167 88v-242l-44 -25v894l44 25v-283q68 90 173 90q89 0 141 -66.5t52 -201.5z"/>
<glyph glyph-name="OE" horiz-adv-x="1049" unicode="Œ" d="M597 349q0 146 -68.5 233t-174.5 87q-105 0 -172 -86t-67 -232t68 -233t174 -87t173 86t67 232zM1001 0h-404v167q-25 -83 -87.5 -130.5t-154.5 -47.5q-127 0 -206.5 99t-79.5 262t79.5 262t206.5 99q88 0 153 -48t89 -129v166h389v-42h-348v-264h210v-42h-210v-310h363 v-42z"/>
<glyph glyph-name="oe" horiz-adv-x="932" unicode="œ" d="M460 264q0 111 -50 172t-129 61t-129 -61t-50 -172q0 -112 50 -174t129 -62t129 62t50 174zM829 286q-3 99 -46.5 155t-116.5 56q-69 0 -115 -55t-50 -156h328zM871 274q0 -12 -2 -24h-368q3 -104 48.5 -163t118.5 -59q79 0 154 47l20 -32q-86 -54 -179 -54 q-67 0 -118 44.5t-67 117.5q-18 -75 -70.5 -118.5t-128.5 -43.5q-96 0 -159 72.5t-63 200.5t64.5 201t160.5 73q76 0 129.5 -43.5t68.5 -117.5q15 73 66 117t120 44q93 0 149 -71t56 -191z"/>
<glyph glyph-name="Scaron" horiz-adv-x="576" unicode="Š" d="M437 897l-130 -147h-50l-130 147h39l117 -113l116 113h38zM501 176q0 -85 -60.5 -136t-157.5 -51q-129 0 -225 84l31 34q90 -76 196 -76q74 0 122 37.5t48 105.5q0 58 -39.5 94t-143.5 74q-114 42 -155.5 83t-41.5 113q0 77 56.5 125t152.5 48q112 0 204 -67l-30 -36 q-80 61 -177 61q-78 0 -119 -37t-41 -91q0 -55 35 -87.5t141 -70.5q117 -44 160.5 -88t43.5 -119z"/>
<glyph glyph-name="scaron" horiz-adv-x="449" unicode="š" d="M376 742l-130 -147h-50l-130 147h39l117 -113l116 113h38zM388 129q0 -67 -47.5 -103.5t-122.5 -36.5q-91 0 -169 61l24 32q66 -55 146 -55q61 0 94 26.5t33 74.5q0 40 -28.5 67t-105.5 60q-85 36 -116.5 67t-31.5 88q0 55 42.5 90.5t110.5 35.5q97 0 160 -52l-25 -32 q-59 46 -137 46q-50 0 -79 -24.5t-29 -60.5q0 -41 26 -65.5t102 -56.5q84 -36 118.5 -69t34.5 -93z"/>
<glyph glyph-name="Ydieresis" horiz-adv-x="633" unicode="Ÿ" d="M251 801q0 -13 -9.5 -23t-22.5 -10q-14 0 -24 9.5t-10 23.5t10 24t24 10q13 0 22.5 -10t9.5 -24zM445 801q0 -13 -9.5 -23t-23.5 -10t-23.5 10t-9.5 23q0 14 10 24t23 10t23 -10t10 -24zM578 700l-239 -412v-288h-46v287l-238 413h52l210 -366l210 366h51z"/>
<glyph glyph-name="circumflex" horiz-adv-x="500" unicode="ˆ" d="M405 595h-39l-117 113l-116 -113h-38l130 147h50z"/>
<glyph glyph-name="tilde" horiz-adv-x="500" unicode="˜" d="M415 702q-2 -51 -26.5 -78t-62.5 -27q-35 0 -75 30q-47 34 -62 38q-7 2 -15 2q-43 0 -53 -68h-36q2 51 26.5 78t62.5 27q35 0 75 -30q32 -24 46 -32t31 -8q43 0 53 68h36z"/>
<glyph glyph-name="pi" horiz-adv-x="836" unicode="π" d="M546 431q0 90 -104 90h-100v-182h93q111 0 111 92zM577 431q0 -59 -37.5 -90.5t-103.5 -31.5h-94v-168h-32v408h135q132 0 132 -118zM749 350q0 146 -94 239.5t-237 93.5t-237 -93.5t-94 -239.5t94 -239.5t237 -93.5t237 93.5t94 239.5zM779 350q0 -158 -102.5 -259.5 t-258.5 -101.5t-258.5 101.5t-102.5 259.5t102.5 259.5t258.5 101.5t258.5 -101.5t102.5 -259.5z"/>
<glyph glyph-name="endash" horiz-adv-x="417" unicode="–" d="M365 343h-314v42h314v-42z"/>
<glyph glyph-name="emdash" horiz-adv-x="571" unicode="—" d="M520 343h-469v42h469v-42z"/>
<glyph glyph-name="quoteleft" horiz-adv-x="218" unicode="‘" d="M144 700l-18 -191h-60l46 191h32z"/>
<glyph glyph-name="quotesinglbase" horiz-adv-x="218" unicode="‚" d="M149 91l-46 -191h-31l17 191h60z"/>
<glyph glyph-name="quotedblleft" horiz-adv-x="406" unicode="“" d="M144 700l-18 -191h-60l46 191h32zM331 700l-17 -191h-60l46 191h31z"/>
<glyph glyph-name="quotedblright" horiz-adv-x="406" unicode="”" d="M152 700l-46 -191h-31l18 191h59zM340 700l-46 -191h-31l17 191h60z"/>
<glyph glyph-name="dagger" horiz-adv-x="539" unicode="†" d="M488 411h-198v-511h-41v511h-198v40h198v249h41v-249h198v-40z"/>
<glyph glyph-name="daggerdbl" horiz-adv-x="539" unicode="‡" d="M488 149h-198v-249h-41v249h-198v39h198v224h-198v39h198v249h41v-249h198v-39h-198v-224h198v-39z"/>
<glyph glyph-name="ellipsis" horiz-adv-x="635" unicode="…" d="M143 32q0 -16 -11.5 -27t-26.5 -11q-16 0 -27 11t-11 27t11 28t27 12q15 0 26.5 -12t11.5 -28zM355 32q0 -16 -11.5 -27t-26.5 -11q-16 0 -27 11t-11 27t11 28t27 12q15 0 26.5 -12t11.5 -28zM567 32q0 -16 -11.5 -27t-26.5 -11q-16 0 -27 11t-11 27t11 28t27 12 q15 0 26.5 -12t11.5 -28z"/>
<glyph glyph-name="perthousand" horiz-adv-x="1280" unicode="‰" d="M805 197q0 80 -30 126.5t-83 46.5q-52 0 -82 -46t-30 -126t30 -126.5t83 -46.5q52 0 82 47t30 125zM1192 197q0 80 -30 126.5t-83 46.5q-52 0 -82 -46t-30 -126t30 -126.5t83 -46.5q52 0 82 47.5t30 124.5zM328 501q0 80 -30.5 127t-82.5 47q-53 0 -83 -46t-30 -127 q0 -80 30.5 -126t82.5 -46t82.5 47t30.5 124zM846 198q0 -96 -41.5 -152.5t-112.5 -56.5t-112 56t-41 152t41.5 152.5t112.5 56.5q72 0 112.5 -56t40.5 -152zM1233 198q0 -96 -42 -152.5t-113 -56.5q-70 0 -111 56t-41 152t41 152.5t113 56.5t112.5 -56t40.5 -152zM693 700 l-435 -700h-44l435 700h44zM369 502q0 -95 -42 -151.5t-113 -56.5q-70 0 -111.5 56t-41.5 151q0 97 41.5 153.5t112.5 56.5q72 0 113 -56t41 -153z"/>
<glyph glyph-name="guilsinglleft" horiz-adv-x="343" unicode="‹" d="M289 0h-50l-203 262l203 263h50l-203 -262z"/>
<glyph glyph-name="guilsinglright" horiz-adv-x="343" unicode="›" d="M54 0l203 263l-203 262h50l203 -263l-203 -262h-50z"/>
<glyph glyph-name="fraction" horiz-adv-x="454" unicode="⁄" d="M498 700l-493 -700h-49l493 700h49z"/>
<glyph glyph-name="Euro" horiz-adv-x="588" unicode="€" d="M117 265q15 -111 71.5 -173t146.5 -62q91 0 161 84l32 -29q-78 -96 -194 -96q-124 0 -195.5 95.5t-71.5 264.5t74 265.5t195 96.5q120 0 185 -89l-35 -29q-32 40 -66 58.5t-85 18.5q-85 0 -142 -60t-75 -168h275v-40h-279q-2 -34 -2 -51q0 -16 2 -46h279v-40h-276z"/>
<glyph glyph-name="trademark" horiz-adv-x="787" unicode="™" d="M733 292h-27v347l-147 -354h-2l-146 354v-347h-27v408h33l142 -350l142 350h32v-408zM306 674h-125v-382h-29v382h-126v26h280v-26z"/>
<glyph glyph-name="partialdiff" horiz-adv-x="366" unicode="∂" d="M294 140l-111 -155l-111 155q-1 1 -1 4q0 7 6 5l85 -69v540l-85 -69q-6 -2 -6 5q0 3 1 4l111 155l111 -155q1 -1 1 -4q0 -7 -6 -5l-85 69v-540l85 69q6 2 6 -5q0 -3 -1 -4z"/>
<glyph glyph-name="product" d="M695 347l-149 -113q-4 -3 -6.5 -1t-0.5 6l69 88h-227v-255l88 70q4 1 6 -1.5t0 -5.5l-114 -150l-113 150q-3 3 -1 6t6 1l88 -70v255h-229l69 -88q2 -4 -0.5 -6t-6.5 1l-149 113l149 114q4 2 6.5 0t0.5 -6l-69 -88h229v261l-88 -70q-4 -2 -6 1t1 6l113 150l114 -150 q2 -3 0 -5.5t-6 -1.5l-88 70v-261h227l-69 88q-1 4 1 6t6 0z" unicode="∏"/>
<glyph glyph-name="summation" d="M695 347l-149 -113q-4 -3 -6.5 -1t-0.5 6l69 88h-227v-255l88 70q4 1 6 -1.5t0 -5.5l-114 -150l-113 150q-3 3 -1 6t6 1l88 -70v255h-229l69 -88q2 -4 -0.5 -6t-6.5 1l-149 113l149 114q4 2 6.5 0t0.5 -6l-69 -88h229v261l-88 -70q-4 -2 -6 1t1 6l113 150l114 -150 q2 -3 0 -5.5t-6 -1.5l-88 70v-261h227l-69 88q-1 4 1 6t6 0z" unicode="∑"/>
<glyph glyph-name="minus" d="M695 347l-149 -113q-4 -3 -6.5 -1t-0.5 6l69 88h-227v-255l88 70q4 1 6 -1.5t0 -5.5l-114 -150l-113 150q-3 3 -1 6t6 1l88 -70v255h-229l69 -88q2 -4 -0.5 -6t-6.5 1l-149 113l149 114q4 2 6.5 0t0.5 -6l-69 -88h229v261l-88 -70q-4 -2 -6 1t1 6l113 150l114 -150 q2 -3 0 -5.5t-6 -1.5l-88 70v-261h227l-69 88q-1 4 1 6t6 0z" unicode="−"/>
<glyph glyph-name="radical" horiz-adv-x="554" unicode="√" d="M508 700l-264 -700h-42l-156 340h47l130 -288l240 648h45z"/>
<glyph glyph-name="infinity" d="M695 347l-149 -113q-4 -3 -6.5 -1t-0.5 6l69 88h-227v-255l88 70q4 1 6 -1.5t0 -5.5l-114 -150l-113 150q-3 3 -1 6t6 1l88 -70v255h-229l69 -88q2 -4 -0.5 -6t-6.5 1l-149 113l149 114q4 2 6.5 0t0.5 -6l-69 -88h229v261l-88 -70q-4 -2 -6 1t1 6l113 150l114 -150 q2 -3 0 -5.5t-6 -1.5l-88 70v-261h227l-69 88q-1 4 1 6t6 0z" unicode="∞"/>
<glyph glyph-name="approxequal" horiz-adv-x="366" unicode="≈" d="M294 140l-111 -155l-111 155q-1 1 -1 4q0 7 6 5l85 -69v620h42v-620l85 69q6 2 6 -5q0 -3 -1 -4z"/>
<glyph glyph-name="notequal" d="M695 347l-149 -113q-4 -3 -6.5 -1t-0.5 6l69 88h-227v-255l88 70q4 1 6 -1.5t0 -5.5l-114 -150l-113 150q-3 3 -1 6t6 1l88 -70v255h-229l69 -88q2 -4 -0.5 -6t-6.5 1l-149 113l149 114q4 2 6.5 0t0.5 -6l-69 -88h229v261l-88 -70q-4 -2 -6 1t1 6l113 150l114 -150 q2 -3 0 -5.5t-6 -1.5l-88 70v-261h227l-69 88q-1 4 1 6t6 0z" unicode="≠"/>
<glyph glyph-name="lessequal" d="M695 347l-149 -113q-4 -3 -6.5 -1t-0.5 6l69 88h-227v-255l88 70q4 1 6 -1.5t0 -5.5l-114 -150l-113 150q-3 3 -1 6t6 1l88 -70v255h-229l69 -88q2 -4 -0.5 -6t-6.5 1l-149 113l149 114q4 2 6.5 0t0.5 -6l-69 -88h229v261l-88 -70q-4 -2 -6 1t1 6l113 150l114 -150 q2 -3 0 -5.5t-6 -1.5l-88 70v-261h227l-69 88q-1 4 1 6t6 0z" unicode="≤"/>
<glyph glyph-name="greaterequal" d="M695 347l-149 -113q-4 -3 -6.5 -1t-0.5 6l69 88h-227v-255l88 70q4 1 6 -1.5t0 -5.5l-114 -150l-113 150q-3 3 -1 6t6 1l88 -70v255h-229l69 -88q2 -4 -0.5 -6t-6.5 1l-149 113l149 114q4 2 6.5 0t0.5 -6l-69 -88h229v261l-88 -70q-4 -2 -6 1t1 6l113 150l114 -150 q2 -3 0 -5.5t-6 -1.5l-88 70v-261h227l-69 88q-1 4 1 6t6 0z" unicode="≥"/>
<glyph glyph-name="lozenge" d="M695 347l-149 -113q-4 -3 -6.5 -1t-0.5 6l69 88h-227v-255l88 70q4 1 6 -1.5t0 -5.5l-114 -150l-113 150q-3 3 -1 6t6 1l88 -70v255h-229l69 -88q2 -4 -0.5 -6t-6.5 1l-149 113l149 114q4 2 6.5 0t0.5 -6l-69 -88h229v261l-88 -70q-4 -2 -6 1t1 6l113 150l114 -150 q2 -3 0 -5.5t-6 -1.5l-88 70v-261h227l-69 88q-1 4 1 6t6 0z" unicode="◊"/>
</font>
</defs>
</svg>
