<?xml version="1.0" encoding="UTF-8" standalone="no"?>
<svg width="1000px" height="1000px" viewBox="0 0 1000 1000" version="1.1" xmlns="http://www.w3.org/2000/svg" xmlns:xlink="http://www.w3.org/1999/xlink" style="background: #FAFAFA;">
    <!-- Generator: Sketch 3.7.2 (28276) - http://www.bohemiancoding.com/sketch -->
    <title>resources</title>
    <desc>Created with Sketch.</desc>
    <defs></defs>
    <g id="Icons" stroke="none" stroke-width="1" fill="none" fill-rule="evenodd">
        <g id="resources">
            <g id="flask" transform="translate(341.000000, 306.000000)">
                <g id="Capa_1">
                    <g id="Group">
                        <path d="M312.812057,333.099516 L195.342857,134.431391 L195.342857,24.25 C195.342857,20.9019844 192.6338,18.1875 189.285714,18.1875 C185.937629,18.1875 183.228571,20.9019844 183.228571,24.25 L134.771429,24.25 C134.771429,20.9019844 132.062371,18.1875 128.714286,18.1875 C125.3662,18.1875 122.657143,20.9019844 122.657143,24.25 L122.657143,134.431391 L5.18794286,333.099516 C-1.54911429,344.487164 -1.65587143,358.149008 4.8919,369.643508 C11.4396714,381.138008 23.2405,388 36.4609714,388 L281.538271,388 C294.758743,388 306.559571,381.138008 313.107343,369.643508 C319.655871,358.149008 319.549871,344.487922 312.812057,333.099516 L312.812057,333.099516 Z" id="Shape" fill="#B3F4FF"></path>
                        <path d="M159,24.25 L134.771429,24.25 C134.771429,20.9019844 132.062371,18.1875 128.714286,18.1875 C125.3662,18.1875 122.657143,20.9019844 122.657143,24.25 L122.657143,134.431391 L5.18794286,333.099516 C-1.54911429,344.487164 -1.65587143,358.149008 4.8919,369.643508 C11.4396714,381.138008 23.2405,388 36.4609714,388 L159,388 L159,24.25 L159,24.25 Z" id="Shape" fill="#53DCFF"></path>
                        <path d="M291.967157,345.449586 L257.943429,287.911914 C256.854657,286.067398 254.873214,284.936742 252.732014,284.936742 L65.2679857,284.936742 C63.1267857,284.936742 61.1453429,286.067398 60.0565714,287.911914 L26.0381429,345.449586 C23.7606571,349.297758 23.7197714,353.735508 25.9374429,357.636727 C28.1619286,361.520516 31.9945857,363.749242 36.4602143,363.749242 L281.537514,363.749242 C286.003143,363.749242 289.836557,361.520516 292.066343,357.624602 C294.280229,353.738539 294.244643,349.300789 291.967157,345.449586 L291.967157,345.449586 Z" id="Shape" fill="#00E68C"></path>
                        <path d="M159,284.9375 L65.2679857,284.9375 C63.1267857,284.9375 61.1453429,286.068156 60.0565714,287.912672 L26.0381429,345.450344 C23.7606571,349.298516 23.7197714,353.736266 25.9374429,357.637484 C28.1619286,361.521273 31.9945857,363.75 36.4602143,363.75 L159,363.75 L159,284.9375 L159,284.9375 Z" id="Shape" fill="#00BEBE"></path>
                        <ellipse id="Oval" fill="#FFFFFF" cx="183.228571" cy="327.375" rx="12.1142857" ry="12.125"></ellipse>
                        <ellipse id="Oval-Copy" fill="#FFFFFF" cx="207.457143" cy="262.203125" rx="12.1142857" ry="12.125"></ellipse>
                        <ellipse id="Oval" fill="#00E68C" cx="116.6" cy="309.1875" rx="12.1142857" ry="12.125"></ellipse>
                        <ellipse id="Oval-Copy-3" fill="#00E68C" cx="100.7" cy="262.203125" rx="12.1142857" ry="12.125"></ellipse>
                        <ellipse id="Oval" fill="#FFFFFF" cx="225.628571" cy="315.25" rx="6.05714286" ry="6.0625"></ellipse>
                        <ellipse id="Oval-Copy-2" fill="#FFFFFF" cx="171.114286" cy="234.921875" rx="6.05714286" ry="6.0625"></ellipse>
                        <ellipse id="Oval" fill="#00E68C" cx="134.771429" cy="333.4375" rx="6.05714286" ry="6.0625"></ellipse>
                        <ellipse id="Oval" fill="#00E68C" cx="80.2571429" cy="321.3125" rx="6.05714286" ry="6.0625"></ellipse>
                        <ellipse id="Oval-Copy-4" fill="#00E68C" cx="134.771429" cy="268.265625" rx="6.05714286" ry="6.0625"></ellipse>
                        <path d="M195.342857,0 L122.657143,0 C115.966271,0 110.542857,5.42821094 110.542857,12.125 L110.542857,12.125 C110.542857,18.8217891 115.966271,24.25 122.657143,24.25 L195.342857,24.25 C202.033729,24.25 207.457143,18.8217891 207.457143,12.125 L207.457143,12.125 C207.457143,5.42821094 202.032971,0 195.342857,0 L195.342857,0 Z" id="Shape" fill="#44BEF1"></path>
                    </g>
                </g>
            </g>
        </g>
    </g>
</svg>