<?xml version="1.0" encoding="UTF-8" standalone="no"?>
<svg width="1000px" height="1000px" viewBox="0 0 1000 1000" version="1.1" xmlns="http://www.w3.org/2000/svg" xmlns:xlink="http://www.w3.org/1999/xlink" style="background: #FAFAFA;">
    <!-- Generator: Sketch 3.7.2 (28276) - http://www.bohemiancoding.com/sketch -->
    <title>lesmateriaal</title>
    <desc>Created with Sketch.</desc>
    <defs></defs>
    <g id="Icons" stroke="none" stroke-width="1" fill="none" fill-rule="evenodd">
        <g id="lesmateriaal">
            <g id="diagram" transform="translate(278.000000, 276.000000)">
                <g id="Capa_1">
                    <g id="Group">
                        <g transform="translate(84.093750, 0.000000)" id="Shape" fill="#5C546A">
                            <path d="M245.547281,405.705445 L213.203531,295.736695 C212.199258,292.313109 208.617188,290.32882 205.174195,291.358969 C201.750609,292.363242 199.785727,295.95825 200.796469,299.388305 L209.772668,329.90625 L36.039832,329.90625 L45.0160313,299.388305 C46.0267734,295.95825 44.0618906,292.363242 40.6383047,291.358969 C37.1767148,290.32316 33.6140508,292.313109 32.6089688,295.736695 L0.26521875,405.705445 C-0.745523437,409.1355 1.21935938,412.730508 4.64294531,413.734781 C5.25585938,413.917523 5.86877344,414 6.46875,414 C9.26729297,414 11.8442813,412.174195 12.6722813,409.357055 L32.2345898,342.84375 L213.577102,342.84375 L233.13941,409.357055 C233.966602,412.174195 236.544398,414 239.342941,414 C239.942918,414 240.562301,413.917523 241.168746,413.734781 C244.593141,412.730508 246.558023,409.1355 245.547281,405.705445 L245.547281,405.705445 Z"></path>
                            <path d="M122.90625,38.8125 C126.481852,38.8125 129.375,35.9193516 129.375,32.34375 L129.375,6.46875 C129.375,2.89314844 126.481852,0 122.90625,0 C119.330648,0 116.4375,2.89314844 116.4375,6.46875 L116.4375,32.34375 C116.4375,35.9193516 119.330648,38.8125 122.90625,38.8125 L122.90625,38.8125 Z"></path>
                        </g>
                        <path d="M394.59375,25.875 L19.40625,25.875 C15.8306484,25.875 12.9375,28.7681484 12.9375,32.34375 L12.9375,284.625 C12.9375,295.32593 21.6428203,304.03125 32.34375,304.03125 L381.65625,304.03125 C392.35718,304.03125 401.0625,295.32593 401.0625,284.625 L401.0625,32.34375 C401.0625,28.7681484 398.169352,25.875 394.59375,25.875 L394.59375,25.875 Z" id="Shape" fill="#FFFFFF"></path>
                        <path d="M388.125,38.8125 L388.125,284.625 C388.125,288.191707 385.222957,291.09375 381.65625,291.09375 L32.34375,291.09375 C28.777043,291.09375 25.875,288.191707 25.875,284.625 L25.875,38.8125 L388.125,38.8125 L388.125,38.8125 Z M394.59375,25.875 L19.40625,25.875 C15.8306484,25.875 12.9375,28.7681484 12.9375,32.34375 L12.9375,284.625 C12.9375,295.32593 21.6428203,304.03125 32.34375,304.03125 L381.65625,304.03125 C392.35718,304.03125 401.0625,295.32593 401.0625,284.625 L401.0625,32.34375 C401.0625,28.7681484 398.169352,25.875 394.59375,25.875 L394.59375,25.875 L394.59375,25.875 Z" id="Shape" fill="#8B8996"></path>
                        <path d="M6.46875,45.28125 L407.53125,45.28125 C411.103617,45.28125 414,42.3848672 414,38.8125 L414,25.875 C414,22.3026328 411.103617,19.40625 407.53125,19.40625 L6.46875,19.40625 C2.89638281,19.40625 0,22.3026328 0,25.875 L0,38.8125 C0,42.3848672 2.89638281,45.28125 6.46875,45.28125 L6.46875,45.28125 Z" id="Shape" fill="#9F6459"></path>
                    </g>
                </g>
            </g>
            <g id="light-bulb" transform="translate(437.000000, 372.000000)">
                <g id="Capa_1">
                    <g id="XMLID_1087_">
                        <path d="M30.5954198,121.625 C30.5954198,131.221121 38.3879084,139 48,139 C57.6120916,139 65.4045802,131.221121 65.4045802,121.625 L65.4045802,120.710526 L30.5954198,120.710526 L30.5954198,121.625 L30.5954198,121.625 Z" id="XMLID_1088_" fill="#ACABB1"></path>
                        <polygon id="XMLID_1089_" fill="#565659" points="48 109.736842 42.5038168 109.736842 30.5954198 109.736842 30.5954198 120.710526 65.4045802 120.710526 65.4045802 109.736842 53.4961832 109.736842"></polygon>
                        <path d="M48,0 C21.5662901,0 0.13740458,21.3921 0.13740458,47.78125 C0.13740458,65.4880211 9.78540458,80.9444553 24.1194504,89.1992263 L30.5954198,109.736842 L47.9999992,109.736839 C47.9999992,109.736839 48,14.7215632 48,0 Z" id="XMLID_1090_" fill="#FFE98F"></path>
                        <path d="M48,109.736839 L65.4045802,109.736842 L71.8805496,89.1992263 C86.2145954,80.9448211 95.8625954,65.4883868 95.8625954,47.78125 C95.8625954,21.3921 74.4337099,0 48,0 L48,109.736839 Z" id="XMLID_1091_" fill="#FFDA44"></path>
                    </g>
                </g>
            </g>
        </g>
    </g>
</svg>