<?xml version="1.0" encoding="UTF-8" standalone="no"?>
<svg width="1000px" height="1000px" viewBox="0 0 1000 1000" version="1.1" xmlns="http://www.w3.org/2000/svg" xmlns:xlink="http://www.w3.org/1999/xlink" style="background: #FAFAFA;">
    <!-- Generator: Sketch 3.7.2 (28276) - http://www.bohemiancoding.com/sketch -->
    <title>tips-and-tricks</title>
    <desc>Created with Sketch.</desc>
    <defs></defs>
    <g id="Icons" stroke="none" stroke-width="1" fill="none" fill-rule="evenodd">
        <g id="tips-and-tricks">
            <g id="mortarboard" transform="translate(303.618687, 345.000000)">
                <g id="Capa_1" transform="translate(-0.000000, 0.000000)">
                    <g id="Group">
                        <path d="M309.278232,140.327449 L83.8236869,140.327449 C80.3620202,140.327449 77.5610606,143.13154 77.5610606,146.590076 L77.5610606,191.416389 C77.5610606,229.490808 129.827374,259.317348 196.55096,259.317348 C263.274545,259.317348 315.540859,229.490025 315.540859,191.416389 L315.540859,146.590076 C315.540859,143.13154 312.739899,140.327449 309.278232,140.327449 L309.278232,140.327449 Z" id="Shape" fill="#5D647F"></path>
                        <path d="M196.746667,140.327449 L83.8236869,140.327449 C80.3620202,140.327449 77.5610606,143.13154 77.5610606,146.590076 L77.5610606,191.416389 C77.5610606,229.490808 129.827374,259.317348 196.55096,259.317348 C196.616717,259.317348 196.680909,259.311869 196.746667,259.311869 L196.746667,140.327449 L196.746667,140.327449 Z" id="Shape" fill="#5C546A"></path>
                        <path d="M377.928359,73.4692172 L218.726919,5.2339899 C204.63601,-0.80239899 188.453384,-0.799267677 174.350732,5.24964646 L15.1860859,73.4629545 C5.81641414,77.4780808 0,86.302904 0,96.492197 C0,106.678359 5.81641414,115.493788 15.1798232,119.505783 L174.375,187.740227 C181.414192,190.755682 188.973182,192.262626 196.538434,192.262626 C204.116212,192.262626 211.693207,190.751768 218.751187,187.724571 L377.915833,119.511263 C387.285505,115.499268 393.107399,106.674444 393.107399,96.4851515 C393.108182,86.2997727 387.291768,77.4812121 377.928359,73.4692172 L377.928359,73.4692172 Z" id="Shape" fill="#527992"></path>
                        <path d="M39.985303,228.004217 C36.5236364,228.004217 33.7226768,225.200126 33.7226768,221.741591 L33.7226768,126.808005 C33.7226768,120.69803 38.0892929,115.508662 44.1076768,114.465934 L170.430328,92.4950758 C173.837197,91.9079545 177.078106,94.1859848 177.67149,97.5928535 C178.264874,100.999722 175.983712,104.243763 172.570581,104.837146 L46.2479293,126.808005 L46.2479293,221.740808 C46.2479293,225.200126 43.4469697,228.004217 39.985303,228.004217 L39.985303,228.004217 Z" id="Shape" fill="#5C546A"></path>
                        <ellipse id="Oval" fill="#FF9600" cx="39.985303" cy="228.004217" rx="12.5252525" ry="12.5252525"></ellipse>
                        <path d="M171.500455,90.2264394 L171.500455,102.751692 C171.500455,109.668763 182.716035,115.276944 196.55096,115.276944 C210.385884,115.276944 221.601465,109.668763 221.601465,102.751692 L221.601465,90.2264394 L171.500455,90.2264394 L171.500455,90.2264394 Z" id="Shape" fill="#FF9600"></path>
                        <ellipse id="Oval" fill="#FFD200" cx="196.55096" cy="90.2264394" rx="25.0505051" ry="12.5252525"></ellipse>
                        <path d="M27.1163889,253.002273 L22.6088636,302.588182 C22.2753788,306.255732 25.1632323,309.417576 28.8456566,309.417576 L52.7054798,309.417576 C56.387904,309.417576 59.2757576,306.255732 58.9422727,302.588182 L54.4347475,253.002273 C53.7928283,245.93803 47.8691667,240.528687 40.7759596,240.528687 L40.7751768,240.528687 C33.6819697,240.52947 27.7590909,245.93803 27.1163889,253.002273 L27.1163889,253.002273 Z" id="Shape" fill="#FFD200"></path>
                    </g>
                </g>
            </g>
        </g>
    </g>
</svg>